<?xml version="1.0" encoding="UTF-8"?>
<svg id="_레이어_1" data-name="레이어 1" xmlns="http://www.w3.org/2000/svg" viewBox="0 0 186.84 121.65">
  <defs>
    <style>
      .cls-1 {
        fill: #ff7389;
      }

      .cls-2 {
        fill: #fffacc;
      }

      .cls-3 {
        fill: #d27e1c;
      }

      .cls-4 {
        fill: #231815;
      }

      .cls-5 {
        stroke-width: .75px;
      }

      .cls-5, .cls-6 {
        fill: #add24f;
      }

      .cls-5, .cls-7, .cls-8 {
        stroke: #231815;
        stroke-miterlimit: 10;
      }

      .cls-9 {
        fill: #bd6000;
      }

      .cls-10 {
        fill: #a8ba4e;
      }

      .cls-11 {
        fill: #468e04;
      }

      .cls-12 {
        fill: #fff;
      }

      .cls-13 {
        fill: #27a127;
      }

      .cls-7 {
        stroke-width: .22px;
      }

      .cls-7, .cls-8 {
        fill: #78bece;
      }

      .cls-14 {
        fill: #ff9947;
      }

      .cls-15 {
        fill: #e4e5e3;
      }

      .cls-16 {
        fill: #a5ca64;
      }

      .cls-17 {
        fill: #c8ccc2;
      }

      .cls-8 {
        stroke-width: .48px;
      }

      .cls-18 {
        fill: #d34900;
      }

      .cls-19 {
        fill: #85bf62;
      }

      .cls-20 {
        fill: #fffab7;
      }

      .cls-21 {
        fill: #f6ec0e;
      }

      .cls-22 {
        fill: #ff696d;
      }

      .cls-23 {
        fill: #abada6;
      }

      .cls-24 {
        fill: #444341;
      }
    </style>
  </defs>
  <g>
    <path class="cls-16" d="M141.5,43.06c-.8-.71-1.82-1.18-2.89-1.28-.03,0-.09,0-.15,0-.08,0-.17,0-.21.04-.03.02-.11.11-.12.41-.06,1.97,1.69,3.49,2.45,4.05.33.24.72.51,1.15.62.26.07.48.06.66-.02-.17-1.3-.47-2.58-.89-3.82Z"/>
    <path class="cls-11" d="M146.24,42.47c-.58.33-1.1.9-1.61,1.74.15.66.28,1.32.39,1.99.87-1.16,1.66-2.35,2.32-3.58l.07-.13c.06-.1.14-.25.18-.36-.04,0-.08-.01-.14-.01-.37,0-.9.18-1.2.36Z"/>
    <path d="M148.06,41.47c-.17-.1-.38-.15-.61-.15-.56,0-1.22.25-1.59.46-.6.34-1.08.85-1.49,1.41-.23-.84-.48-1.68-.79-2.5-.02-.06-.06-.12-.08-.18.26-.02.52-.06.77-.15,1.69-.58,2.74-2.52,2.28-4.25-.23-.86-.8-1.57-1.54-2.04,1.21-.76,1.9-2.24,1.66-3.65-.26-1.51-1.56-2.74-3.08-2.93-1.33-.17-2.7.48-3.44,1.59-1.04-.92-2.58-1.29-3.92-.88-1.51.46-2.7,1.87-2.88,3.45-.16,1.39.48,2.84,1.57,3.7-.59.69-.92,1.6-.82,2.51.17,1.54,1.5,2.83,3.04,2.95.08,0,.15,0,.23,0,.99,0,1.94-.48,2.57-1.24.4.71.76,1.44,1.06,2.2-.72-.41-1.52-.68-2.34-.76-.27-.02-.61-.02-.89.18-.28.2-.42.55-.44,1.02-.05,1.65.96,3.36,2.76,4.7.39.29.86.6,1.42.75.18.05.36.07.53.07.15,0,.28-.03.42-.06.22,2.31.09,4.66-.48,6.89-.07.26-.18.71.04,1.16.22.46.66.73,1.22.73.5,0,.95-.21,1.18-.33l.33-.18.07-.36c.53-2.74.63-5.52.32-8.26.07-.08.14-.16.2-.24,1-1.29,1.91-2.66,2.68-4.1.29-.53.68-1.12.03-1.52ZM147.41,42.48l-.07.13c-.66,1.23-1.45,2.43-2.32,3.58-.1-.67-.23-1.33-.39-1.99.52-.84,1.03-1.41,1.61-1.74.3-.17.83-.36,1.2-.36.06,0,.11,0,.14.01-.05.11-.13.26-.18.36ZM144.06,55.43c-.24.13-.54.24-.81.24-.22,0-.41-.08-.51-.28-.09-.19-.04-.42.02-.63,1.26-4.98.59-10.41-1.77-14.97.48.36,1.05.61,1.65.71.07.16.15.32.21.48,1.73,4.58,2.16,9.65,1.22,14.45ZM141.73,46.9c-.43-.11-.82-.38-1.15-.62-.76-.56-2.51-2.08-2.45-4.05,0-.3.08-.39.12-.41.05-.03.13-.04.21-.04.06,0,.12,0,.15,0,1.07.09,2.09.56,2.89,1.28.41,1.24.71,2.52.89,3.82-.18.08-.39.09-.66.02ZM137.21,40c-1.16-.09-2.2-1.1-2.32-2.25-.08-.77.25-1.55.81-2.09.09-.03.17-.08.22-.17,0-.01,0-.03.02-.05.23-.17.48-.31.75-.39.21-.06.33-.28.26-.49-.06-.21-.28-.33-.49-.26-.34.1-.66.27-.94.48-.95-.68-1.51-1.89-1.38-3.06.14-1.27,1.1-2.41,2.32-2.78,1.22-.37,2.65.06,3.47,1.03.09.1.22.16.35.14.13-.02.25-.1.3-.23.48-1.07,1.73-1.77,2.9-1.62,1.17.15,2.2,1.13,2.4,2.29.2,1.16-.43,2.43-1.48,2.97-.08.04-.14.11-.17.19-.57-.2-1.18-.27-1.78-.16-.21.04-.35.25-.31.46.04.21.24.35.46.31,1.34-.26,2.83.67,3.18,1.99.35,1.32-.48,2.87-1.77,3.31-1.3.44-2.89-.28-3.42-1.54-.06-.15-.21-.25-.39-.24-.17.01-.31.13-.35.29-.3,1.12-1.48,1.96-2.63,1.88Z"/>
    <path class="cls-11" d="M142.84,40.97c-.06-.17-.14-.32-.21-.48-.6-.1-1.16-.34-1.65-.71,2.36,4.56,3.03,9.99,1.77,14.97-.05.21-.11.44-.02.63.1.2.29.28.51.28.26,0,.57-.11.81-.24.94-4.81.51-9.87-1.22-14.45Z"/>
    <path class="cls-21" d="M139.84,38.13c.04-.16.19-.28.35-.29.18,0,.33.09.39.24.53,1.26,2.12,1.98,3.42,1.54,1.29-.44,2.12-1.99,1.77-3.31-.35-1.32-1.84-2.25-3.18-1.99-.22.04-.42-.1-.46-.31-.04-.21.1-.42.31-.46.6-.12,1.22-.05,1.78.16.04-.08.09-.14.17-.19,1.05-.54,1.68-1.81,1.48-2.97-.2-1.16-1.23-2.14-2.4-2.29-1.16-.15-2.41.55-2.9,1.62-.06.12-.17.21-.3.23-.13.02-.27-.03-.35-.14-.82-.98-2.25-1.4-3.47-1.03-1.22.37-2.18,1.51-2.32,2.78-.13,1.17.43,2.38,1.38,3.06.29-.21.6-.37.94-.48.21-.06.43.06.49.26.06.21-.06.43-.26.49-.27.08-.52.22-.75.39,0,.02,0,.03-.02.05-.05.09-.13.14-.22.17-.56.54-.89,1.33-.81,2.09.12,1.15,1.17,2.16,2.32,2.25,1.16.09,2.34-.75,2.63-1.88ZM137.62,35.13c-.03-.13-.03-.38.34-.58.11-.06.25-.09.41-.09.11,0,.24.02.37.05-.13-.1-.26-.21-.37-.33-.09-.11-.21-.26-.24-.44-.03-.18.04-.41.25-.5.24-.1.49.07.63.3-.02-.26.06-.5.21-.66.2-.21.53-.26.75-.11.04.03.07.08.1.12.12-.11.27-.18.43-.18.08,0,.15.02.22.05.15.07.34.23.39.62.09.68-.2,1.4-.73,1.83-.02.02-.05.03-.08.05-.06.13-.15.25-.27.34-.23.17-.56.2-.8.2-.58,0-1.49-.21-1.6-.67Z"/>
    <path class="cls-3" d="M138.56,34.01c.33.38.8.63,1.29.72-.01-.09-.03-.19-.05-.29-.08-.34-.16-.73-.02-1.12.03-.08.07-.16.12-.23-.01-.05-.04-.09-.07-.11-.13-.09-.32-.03-.42.07-.11.12-.16.3-.14.51.02.2.1.4.18.58l.11.27-.27-.11c-.22-.09-.32-.3-.41-.48l-.04-.09c-.07-.14-.22-.31-.35-.25-.08.03-.11.14-.1.23.02.12.1.23.18.31Z"/>
    <path class="cls-3" d="M139.23,35.56c.27,0,.51-.05.65-.15.13-.1.2-.21.22-.34-.02,0-.03,0-.05,0-.38,0-1.17-.35-1.68-.35-.11,0-.21.02-.29.06-.68.37.34.78,1.14.78Z"/>
    <path class="cls-3" d="M140.87,33.42c-.02-.17-.09-.36-.24-.43-.04-.02-.08-.03-.12-.03-.21,0-.41.23-.49.45-.21.57.19,1.2.09,1.65.05,0,.09-.02.12-.04.47-.38.72-1.01.64-1.6Z"/>
    <path d="M140.03,35.61c.13-.09.22-.21.27-.34.03-.01.05-.03.08-.05.54-.43.82-1.15.73-1.83-.05-.39-.24-.56-.39-.62-.07-.03-.15-.05-.22-.05-.16,0-.31.07-.43.18-.03-.04-.06-.09-.1-.12-.22-.15-.55-.11-.75.11-.15.16-.23.4-.21.66-.14-.23-.39-.4-.63-.3-.2.08-.28.31-.25.5.03.18.14.33.24.44.11.12.23.23.37.33-.13-.02-.25-.05-.37-.05-.16,0-.3.03-.41.09-.37.2-.37.45-.34.58.12.46,1.03.67,1.6.67.24,0,.58-.04.8-.2ZM138.09,34.77c.08-.04.18-.06.29-.06.51,0,1.3.35,1.68.35.02,0,.04,0,.05,0,.1-.46-.3-1.09-.09-1.65.08-.22.28-.45.49-.45.04,0,.08,0,.12.03.16.07.22.26.24.43.08.6-.17,1.23-.64,1.6-.03.02-.07.04-.12.04-.03.13-.09.24-.22.34-.15.11-.39.15-.65.15-.8,0-1.82-.41-1.14-.78ZM138.83,33.73l.04.09c.09.19.19.4.41.48l.27.11-.11-.27c-.08-.19-.16-.38-.18-.58-.02-.21.03-.39.14-.51.1-.11.3-.16.42-.07.04.02.06.07.07.11-.05.08-.09.15-.12.23-.14.39-.06.78.02,1.12.02.1.04.2.05.29-.49-.09-.96-.34-1.29-.72-.07-.08-.16-.19-.18-.31-.01-.08.02-.19.1-.23.13-.06.28.12.35.25Z"/>
  </g>
  <g>
    <path class="cls-18" d="M111.13,43.32c-.23,0-.45-.01-.67-.03v4.61h1.9v-4.69c-.4.07-.8.12-1.22.12Z"/>
    <path class="cls-13" d="M117.09,36.61c0-3.72-3-10.39-5.96-10.39s-5.96,6.66-5.96,10.39c0,3.29,2.67,5.96,5.96,5.96s5.96-2.67,5.96-5.96Z"/>
    <path d="M117.84,36.61c0-3.71-3-11.14-6.71-11.14s-6.71,7.43-6.71,11.14c0,3.22,2.26,5.9,5.29,6.56v5.48h3.4v-5.62c2.74-.84,4.74-3.39,4.74-6.41ZM110.46,47.9v-4.61c.22.02.45.03.67.03.42,0,.83-.04,1.22-.12v4.69h-1.9ZM111.13,42.57c-3.29,0-5.96-2.67-5.96-5.96,0-3.72,3-10.39,5.96-10.39s5.96,6.66,5.96,10.39c0,3.29-2.67,5.96-5.96,5.96Z"/>
  </g>
  <g>
    <path class="cls-9" d="M121.15,42.3c-.23,0-.45-.01-.67-.03v4.61h1.9v-4.69c-.4.07-.8.12-1.22.12Z"/>
    <path class="cls-19" d="M127.11,35.59c0-3.72-3-10.39-5.96-10.39s-5.96,6.66-5.96,10.39c0,3.29,2.67,5.96,5.96,5.96s5.96-2.67,5.96-5.96Z"/>
    <path d="M127.86,35.59c0-3.71-3-11.14-6.71-11.14s-6.71,7.43-6.71,11.14c0,3.22,2.26,5.9,5.29,6.55v5.48h3.4v-5.62c2.74-.84,4.74-3.39,4.74-6.41ZM120.48,46.87v-4.61c.22.02.45.03.67.03.42,0,.83-.04,1.22-.12v4.69h-1.9ZM121.15,41.55c-3.29,0-5.96-2.67-5.96-5.96,0-3.72,3-10.39,5.96-10.39s5.96,6.66,5.96,10.39c0,3.29-2.67,5.96-5.96,5.96Z"/>
  </g>
  <g>
    <path class="cls-15" d="M28.35,31.1l-.3,32.4h1.75l-.3-32.4c-.18.07-.37.11-.58.11s-.4-.04-.58-.11Z"/>
    <path class="cls-15" d="M28.93,27.85s.03,0,.05,0l-.72-12.65c0-.09-.05-.18-.13-.25-.07-.06-.16-.09-.25-.09,0,0-.02,0-.03,0-.21.02-.37.2-.35.41l1.26,12.6c.06,0,.11-.02.17-.02Z"/>
    <path class="cls-15" d="M27.37,30.17l-10.5,6.99c-.17.12-.21.35-.09.52.06.08.14.14.25.16.1.02.2,0,.28-.06l10.17-7.41c-.04-.07-.08-.13-.1-.2Z"/>
    <path class="cls-15" d="M42.03,34.35l-11.49-4.39c-.02.08-.04.15-.07.23l11.28,4.87c.19.08.41-.02.49-.21.08-.19-.02-.41-.21-.49Z"/>
    <path class="cls-4" d="M42.31,33.65l-11.75-4.49c-.11-.47-.41-.86-.82-1.08l-.74-12.92c-.02-.3-.16-.57-.39-.77-.23-.2-.52-.29-.82-.27-.62.05-1.09.59-1.04,1.22l1.28,12.78c-.42.27-.7.71-.76,1.22l-10.82,7.2c-.51.36-.64,1.06-.28,1.57.17.25.43.41.73.47.07.01.13.02.2.02.23,0,.45-.07.65-.21l9.85-7.18-.3,33.04h3.26l-.3-33.35,11.21,4.84c.14.06.28.08.42.08.45,0,.87-.27,1.05-.7.23-.58-.04-1.24-.63-1.47ZM42.24,34.84c-.08.19-.3.29-.49.21l-11.28-4.87c.03-.07.05-.15.07-.23l11.49,4.39c.19.08.29.3.21.49ZM29.8,63.5h-1.75l.3-32.4c.18.07.37.11.58.11s.4-.04.58-.11l.3,32.4ZM17.03,37.84c-.1-.02-.19-.07-.25-.16-.12-.17-.08-.41.09-.52l10.5-6.99c.03.07.07.13.1.2l-10.17,7.41c-.08.06-.18.08-.28.06ZM27.85,14.86s.02,0,.03,0c.09,0,.18.03.25.09.08.07.12.16.13.25l.72,12.65s-.03,0-.05,0c-.06,0-.11.01-.17.02l-1.26-12.6c-.02-.21.14-.39.35-.41ZM28.93,30.46c-.51,0-.93-.42-.93-.93s.42-.93.93-.93.93.42.93.93-.42.93-.93.93Z"/>
    <path class="cls-10" d="M29.86,29.53c0-.51-.42-.93-.93-.93s-.93.42-.93.93.42.93.93.93.93-.42.93-.93Z"/>
  </g>
  <g>
    <path class="cls-15" d="M38.79,25.6c-.21,0-.41-.04-.6-.11l-.3,33.1h1.8l-.29-31.94-.55-1.05s-.04,0-.06,0Z"/>
    <path class="cls-15" d="M47.51,11.79c-.02-.1-.08-.19-.16-.25-.07-.05-.14-.07-.22-.07-.02,0-.05,0-.07,0-.1.02-.19.08-.25.16l-7.1,10.82c.06.04.12.09.17.13l7.58-10.51c.05-.08.08-.19.06-.29Z"/>
    <path class="cls-4" d="M48.25,11.65c-.06-.3-.22-.56-.48-.73-.25-.17-.55-.24-.86-.18-.3.06-.56.23-.74.48l-7.21,10.98c-.06,0-.12-.02-.18-.02-.46,0-.88.18-1.18.48l-13.23-1.23c-.29-.02-.6.08-.83.28-.23.2-.37.48-.39.78s.08.6.28.83c.2.23.48.37.79.39l12.94.66c.06.21.16.39.29.56l-.31,34.4h3.32l-.29-31.23,4.59,8.76c.15.27.39.46.68.55.11.03.21.05.32.05.19,0,.38-.05.55-.14.55-.3.75-1,.45-1.56l-6.44-11.11c.11-.23.18-.48.18-.75,0-.23-.05-.46-.13-.66l7.71-10.72c.17-.25.24-.56.18-.86ZM45.94,36.66c-.09.05-.2.06-.3.03-.1-.03-.19-.1-.23-.18l-5.8-11.12c.07-.04.14-.08.2-.13l6.29,10.86c.1.19.04.43-.16.54ZM39.69,58.59h-1.8l.3-33.1c.19.07.39.11.6.11.02,0,.04,0,.06,0l.55,1.05.29,31.94ZM24.26,22.97c-.1,0-.2-.06-.27-.14-.07-.08-.1-.18-.1-.29s.06-.2.14-.27c.07-.06.17-.1.25-.1,0,0,.02,0,.02,0l12.85,1.2c-.02.08-.05.16-.06.24l-12.84-.65ZM37.83,23.89c0-.53.43-.96.96-.96s.96.43.96.96-.43.96-.96.96-.96-.43-.96-.96ZM39.87,22.59c-.06-.05-.11-.09-.17-.13l7.1-10.82c.06-.09.15-.14.25-.16.02,0,.05,0,.07,0,.08,0,.16.02.22.07.09.06.14.15.16.25.02.1,0,.21-.06.29l-7.58,10.51Z"/>
    <path class="cls-15" d="M24.31,22.18s-.02,0-.02,0c-.09,0-.18.03-.25.1-.08.07-.13.17-.14.27s.03.21.1.29c.07.08.17.13.27.14l12.84.65c.01-.08.03-.16.06-.24l-12.85-1.2Z"/>
    <path class="cls-15" d="M46.1,36.12l-6.29-10.86c-.06.05-.13.09-.2.13l5.8,11.12c.05.08.13.15.23.18.1.03.21.02.3-.03.19-.1.26-.35.16-.54Z"/>
    <path class="cls-10" d="M38.79,24.85c.53,0,.96-.43.96-.96s-.43-.96-.96-.96-.96.43-.96.96.43.96.96.96Z"/>
  </g>
  <g>
    <path class="cls-5" d="M12.83,107.68c-.32-1.33-.36-2.8-.82-4-1.1-2.83-2.75-5.54-4.49-8.01-2.42-3.44-3.82-7.36-6.08-10.88-2.32-3.61-.36-5.57,1.36-8.75,1.69-3.13,1.92-6.33,5.33-8.25,3.62-2.04,7.97-3.08,11.71-4.97,6.67-3.36,8.31-6.55,8.31-6.55l2.75-2.82,3.94-2.36,6.85-2.48c.53-.19.96-2.41,1.95-2.91,2.97-1.48,7.5,1.34,10.91.3,1.08-.33,2.08-.9,3.17-1.2,2.77-.75,5.65.41,8.44,1.1,8.98,2.22,18.4-.46,27.64.01,6.68.34,13.34,2.34,19.95,1.34,1.86-.28,3.68-.8,5.56-.98,2.12-.21,4.25,0,6.37.22,5.24.53,10.47,1.06,15.71,1.6,2.66.27,5.36.55,7.86,1.51,6.35,2.44,10.27,8.73,15.74,12.77,1.45,1.07,3.1,2.09,3.72,3.78.68,1.85-.12,3.88-.48,5.82-.61,3.24,0,6.57-.19,9.86-.3,5.43-3.03,10.58-7.06,14.17-4.39,3.91-10.02,5.86-15.05,8.83-.38.22-.77.46-.99.83-.57.92.08,2.08.21,3.15.29,2.48-2.43,4.4-4.92,4.48-2.5.08-4.86-1.01-7.29-1.56-4.37-.99-8.02.03-12.02,1.62-6.93,2.77-14.79-.46-22.19.46-6.31.78-12.36,3.45-18.73,3.4-7.73-.06-15.45-1.68-22.55-4.74-4.2-1.81-7.78-3.43-12.17-4.6-5.15-1.36-10.44-2.17-15.75-2.41-.68-.03-1.38-.05-2.02.2-3.37,1.3-1.13,7.05-5.91,6.72-1.77-.13-6.15-1.16-7.49-2.39-.68-.63-1.02-1.45-1.24-2.34Z"/>
    <path class="cls-5" d="M15.66,115.78c-1.04-.83-2.82-.83-3.74-.45-2.69,1.12-.18,5.48,1.25,5.88,1.37.39,3.2-1.2,3.29-3.6.03-.84-.3-1.43-.8-1.83Z"/>
    <g>
      <path class="cls-6" d="M181.13,76.99c-2.17,0-4.39-1-5.67-2.56-1.07-1.3-1.79-3.58-1.15-5.13.05-.13.12-.25.2-.37.37-.54.98-.94,1.58-1.32.86-.55,1.75-1.13,1.92-2.17.07-.42.07-.84.06-1.24,0-1.15-.01-1.97,1.3-2.43.27-.09.54-.14.8-.14,1.32,0,2.41,1.12,2.95,2.08,1.25,2.24,3.69,7.57,3.29,9.75-.33,1.82-2.37,3.33-4.74,3.51-.18.01-.36.02-.54.02h0Z"/>
      <path d="M180.18,62c1.16,0,2.13,1.02,2.62,1.89,1.52,2.72,3.6,7.62,3.25,9.5-.31,1.65-2.2,3.03-4.4,3.21-.17.01-.34.02-.51.02-2.06,0-4.17-.95-5.38-2.42-1-1.22-1.68-3.33-1.09-4.75.04-.11.1-.2.16-.3.32-.48.88-.84,1.47-1.22.88-.57,1.89-1.22,2.09-2.42.07-.45.07-.88.07-1.31,0-1.18.03-1.72,1.05-2.07.23-.08.45-.12.68-.12M180.18,61.25c-.3,0-.61.05-.92.16-2.11.73-1.37,2.48-1.61,3.97-.26,1.54-2.49,1.94-3.44,3.34-.09.14-.17.28-.24.44-.68,1.66,0,4.06,1.2,5.52,1.32,1.62,3.65,2.7,5.96,2.7.19,0,.38,0,.57-.02,2.49-.2,4.71-1.79,5.08-3.82.43-2.33-2.07-7.74-3.33-10-.62-1.12-1.83-2.27-3.27-2.27h0Z"/>
    </g>
  </g>
  <g>
    <path class="cls-17" d="M78.65,28.36h.3c.3,0,.59-.08.84-.2-1.07-1.48-1.69-3.27-1.69-5.19l.33-4.84c-.75.26-1.32.95-1.35,1.79l-.23,6.58c-.02.5.16.97.5,1.32.34.35.8.55,1.3.55Z"/>
    <path class="cls-17" d="M100.79,18.07l.33,4.9c0,1.95-.65,3.76-1.74,5.26.22.09.45.14.7.14h.3c1.04,0,1.88-.84,1.88-1.88v-6.58c0-.89-.63-1.64-1.46-1.83Z"/>
    <path class="cls-17" d="M79.97,7.99h19.28c-1.01-4.15-4.94-7.24-9.64-7.24s-8.64,3.1-9.64,7.24Z"/>
    <path class="cls-17" d="M78.84,22.99c0,4.66,4.06,8.48,9.04,8.48h3.44c4.98,0,9.04-3.81,9.04-8.49l-.54-8.04s-.07.01-.11.01h-20.22s-.07-.01-.11-.01l-.54,8.06ZM89.61,29.05c-2.34,0-4.55-.91-6.21-2.57-.15-.15-.15-.38,0-.53.15-.15.38-.15.53,0,1.52,1.52,3.53,2.35,5.67,2.35s4.16-.84,5.68-2.35c.15-.15.38-.15.53,0s.15.38,0,.53c-1.66,1.66-3.86,2.57-6.21,2.57ZM80.7,16.88h18c.21,0,.38.17.38.38s-.17.38-.38.38h-5.46s-.07.01-.11.06c-.17.2-.22.73-.16,1.07h0s0,.02,0,.03l.03.18c.32-.16.68-.26,1.06-.26h2.7c1.3,0,2.36,1.06,2.36,2.36s-1.06,2.36-2.36,2.36h-2.7c-.06,0-.11-.01-.16-.02l.08.37c.12.51-.02,1.05-.37,1.44-.42.47-.92.86-1.47,1.14-.75.39-1.59.58-2.44.57-.02,0-.05,0-.07,0-.85,0-1.64-.19-2.37-.57-.55-.29-1.04-.67-1.47-1.14-.35-.39-.49-.93-.37-1.44l.09-.39c-.12.02-.23.04-.36.04h-2.69c-1.3,0-2.36-1.06-2.36-2.36s1.06-2.36,2.36-2.36h2.69c.45,0,.87.13,1.23.36l.05-.3c.06-.35,0-.88-.16-1.08-.04-.05-.08-.06-.12-.06h-5.45c-.21,0-.38-.17-.38-.38s.17-.38.38-.38Z"/>
    <path class="cls-23" d="M79.5,14.2h20.22c1.5,0,2.73-1.22,2.73-2.73s-1.22-2.73-2.73-2.73h-20.22c-1.5,0-2.73,1.22-2.73,2.73s1.22,2.73,2.73,2.73Z"/>
    <path class="cls-4" d="M95.81,26.47c.15-.15.15-.38,0-.53s-.38-.15-.53,0c-1.52,1.52-3.53,2.35-5.68,2.35s-4.16-.84-5.67-2.35c-.15-.15-.38-.15-.53,0-.15.15-.15.38,0,.53,1.66,1.66,3.86,2.57,6.21,2.57s4.55-.91,6.21-2.57Z"/>
    <path class="cls-17" d="M101.76,32.98c-.6-1.85-1.61-3.17-3-3.91l.05-.15c-1.8,2.01-4.48,3.3-7.49,3.3h-3.44c-2.87,0-5.45-1.18-7.25-3.05,0,0,0,.02-.02.03,0,0-.06.03-.06.03-1.39.74-2.39,2.06-3,3.91-.99,3.05-.83,8.07-.37,9.52.43,1.36,4.06,1.98,6.9,1.6.6-.08.98-.57,1.15-1.41-.29.05-.57.09-.81.11-.45.04-.9.06-1.38.06-.21,0-.42,0-.63-.01-.21,0-.37-.18-.36-.39,0-.2.17-.36.38-.36h.01c.69.02,1.32,0,1.92-.05.39-.03.83-.07,1.2-.22.19-.07.31-.22.34-.45.05-.29-.07-.63-.27-.83-.04.02-.08.05-.12.07-.4.16-2.74.34-3.44.4,0,0-.02,0-.03,0-.19,0-.36-.15-.37-.35-.02-.21.14-.39.35-.4,1.41-.11,3-.27,3.23-.35.32-.13.36-.42.35-.58-.01-.34-.23-.65-.5-.73-.25-.04-1.86.13-3.27.32-.2.03-.39-.12-.42-.32-.03-.21.12-.39.32-.42.81-.11,2.02-.26,2.82-.31-.2-.47-.4-.78-.55-.84-.81-.32-2.76-.03-3.44.11-.22.04-.4-.09-.44-.29-.04-.2.09-.4.29-.44.05,0,.16-.03.31-.06l.32-3.02c.02-.21.2-.36.41-.33.21.02.35.21.33.41l-.3,2.83c.88-.11,2.08-.18,2.79.1.38.15.77.76,1.08,1.57.55.19.95.75.98,1.39.01.27-.05.51-.17.72.36.37.56.93.47,1.47-.06.4-.28.72-.6.91,0,.02,0,.05,0,.08-.22,1.76-1.13,2.25-1.85,2.34-.56.08-1.18.12-1.81.12-1.44,0-2.95-.21-4.1-.67l-.27,2.53c0,1.76,1.47,3.23,3.28,3.23h16.98c1.81,0,3.28-1.47,3.28-3.27l-.34-2.71c-1.16.51-2.75.74-4.26.74-.63,0-1.25-.04-1.81-.12-.72-.1-1.63-.58-1.85-2.34,0-.03,0-.05,0-.08-.32-.2-.53-.52-.6-.91-.08-.53.11-1.09.47-1.46-.11-.21-.18-.45-.17-.72.03-.64.43-1.2.98-1.39.32-.81.7-1.42,1.08-1.57.72-.28,1.91-.21,2.79-.1l-.3-2.83c-.02-.21.13-.39.33-.41.22-.02.39.13.41.33l.32,3.02c.15.03.27.05.31.06.2.04.33.24.29.44-.04.2-.24.33-.44.29-.68-.14-2.63-.43-3.44-.11-.14.06-.34.38-.55.84.8.05,2.01.2,2.82.31.21.03.35.22.32.42-.03.21-.22.35-.42.32-1.42-.19-3.03-.36-3.29-.32-.25.08-.46.39-.48.72,0,.16.03.45.35.58.23.08,1.82.24,3.23.35.21.02.36.2.35.4-.01.2-.18.35-.37.35,0,0-.02,0-.03,0-.71-.05-3.05-.24-3.45-.4-.05-.02-.08-.05-.12-.07-.2.2-.31.54-.27.83.04.22.15.38.34.45.38.14.83.18,1.2.22.6.05,1.25.07,1.92.05h.01c.2,0,.37.16.38.36,0,.21-.16.38-.36.39-.21,0-.42.01-.62.01-.48,0-.95-.02-1.39-.06-.28-.03-.55-.06-.81-.11.17.84.55,1.32,1.15,1.4,2.83.38,6.46-.23,6.9-1.6.46-1.45.62-6.47-.37-9.52Z"/>
    <rect class="cls-17" x="98.88" y="28.71" width="0" height="0" transform="translate(28.98 104.31) rotate(-63.43)"/>
    <path class="cls-4" d="M102.47,32.75c-.51-1.55-1.28-2.77-2.33-3.64h.23c1.45,0,2.63-1.18,2.63-2.63v-6.58c0-1.33-.99-2.41-2.27-2.6l-.17-2.47c1.5-.38,2.62-1.74,2.62-3.36,0-1.81-1.39-3.28-3.16-3.45-1-4.57-5.29-8.03-10.43-8.03s-9.44,3.46-10.43,8.03c-1.77.16-3.16,1.64-3.16,3.45,0,1.62,1.12,2.97,2.62,3.36l-.17,2.5c-1.19.26-2.11,1.3-2.15,2.56l-.23,6.58c-.02.71.23,1.37.71,1.87.48.5,1.14.77,1.84.77h.3c.09,0,.17-.02.25-.03l-.02.18c-1.04.86-1.82,2.08-2.32,3.64-.99,3.04-.93,8.21-.37,9.98.16.49.56.89,1.09,1.21l-.31,2.84c0,2.22,1.81,4.02,4.03,4.02h16.98c2.22,0,4.03-1.81,4.02-4.07l-.38-3.05c.45-.3.79-.67.93-1.11.56-1.76.62-6.94-.37-9.98ZM95.23,44.11c-.6-.08-.98-.57-1.15-1.4.26.05.52.08.81.11.44.04.91.06,1.39.06.21,0,.41,0,.62-.01.21,0,.37-.18.36-.39,0-.2-.17-.36-.38-.36h-.01c-.67.02-1.32,0-1.92-.05-.37-.03-.82-.07-1.2-.22-.19-.07-.31-.22-.34-.45-.05-.29.07-.63.27-.83.04.02.08.05.12.07.4.16,2.74.34,3.45.4,0,0,.02,0,.03,0,.19,0,.36-.15.37-.35.02-.21-.14-.39-.35-.4-1.41-.11-3-.27-3.23-.35-.32-.13-.36-.42-.35-.58.01-.34.23-.65.48-.72.26-.04,1.87.13,3.29.32.2.03.39-.12.42-.32.03-.21-.12-.39-.32-.42-.81-.11-2.02-.26-2.82-.31.2-.47.4-.78.55-.84.81-.32,2.76-.03,3.44.11.21.04.4-.09.44-.29.04-.2-.09-.4-.29-.44-.04,0-.16-.03-.31-.06l-.32-3.02c-.02-.21-.2-.35-.41-.33-.21.02-.35.21-.33.41l.3,2.83c-.88-.11-2.08-.18-2.79.1-.38.15-.77.76-1.08,1.57-.55.19-.95.75-.98,1.39-.01.27.05.51.17.72-.36.37-.56.93-.47,1.46.06.4.28.72.6.91,0,.03,0,.05,0,.08.22,1.76,1.13,2.24,1.85,2.34.56.08,1.18.12,1.81.12,1.51,0,3.1-.23,4.26-.74l.34,2.71c0,1.81-1.47,3.27-3.28,3.27h-16.98c-1.81,0-3.28-1.47-3.28-3.23l.27-2.53c1.15.46,2.66.67,4.1.67.63,0,1.25-.04,1.81-.12.73-.1,1.64-.58,1.85-2.34,0-.02,0-.05,0-.08.32-.2.53-.51.6-.91.08-.53-.11-1.09-.47-1.47.11-.21.18-.45.17-.72-.03-.64-.43-1.2-.98-1.39-.32-.81-.7-1.42-1.08-1.57-.72-.29-1.91-.21-2.79-.1l.3-2.83c.02-.21-.13-.39-.33-.41-.22-.03-.39.13-.41.33l-.32,3.02c-.15.03-.27.05-.31.06-.2.04-.33.24-.29.44.04.2.23.33.44.29.68-.14,2.63-.43,3.44-.11.14.06.34.38.55.84-.8.05-2.01.2-2.82.31-.21.03-.35.22-.32.42.03.2.22.35.42.32,1.42-.19,3.03-.36,3.27-.32.27.08.48.39.5.73,0,.16-.03.45-.35.58-.23.08-1.82.24-3.23.35-.21.02-.36.2-.35.4.01.2.18.35.37.35,0,0,.02,0,.03,0,.71-.05,3.05-.24,3.44-.4.05-.02.08-.05.12-.07.2.2.31.54.27.83-.04.22-.15.38-.34.45-.37.14-.81.18-1.2.22-.6.05-1.23.07-1.92.05h-.01c-.2,0-.37.16-.38.36,0,.21.16.38.36.39.22,0,.42.01.63.01.48,0,.94-.02,1.38-.06.24-.02.53-.06.81-.11-.17.84-.54,1.33-1.15,1.41-2.83.38-6.46-.24-6.9-1.6-.46-1.45-.62-6.47.37-9.52.6-1.85,1.61-3.17,3-3.91,0,0,.06-.03.06-.03.01,0,0-.02.02-.03,1.79,1.87,4.37,3.05,7.25,3.05h3.44c3,0,5.69-1.28,7.49-3.3l-.05.15c1.39.74,2.39,2.06,3,3.91.99,3.05.83,8.07.37,9.52-.43,1.37-4.06,1.98-6.9,1.6ZM99.24,7.99h-19.28c1-4.14,4.94-7.24,9.64-7.24s8.63,3.1,9.64,7.24ZM79.5,8.74h20.22c1.5,0,2.73,1.22,2.73,2.73s-1.22,2.73-2.73,2.73h-20.22c-1.5,0-2.73-1.22-2.73-2.73s1.22-2.73,2.73-2.73ZM102.25,26.48c0,1.04-.84,1.88-1.88,1.88h-.3c-.25,0-.48-.05-.7-.14,1.1-1.49,1.74-3.3,1.74-5.26l-.33-4.9c.84.19,1.46.94,1.46,1.83v6.58ZM79.5,14.95h20.22s.07-.01.11-.01l.54,8.04c0,4.68-4.06,8.49-9.04,8.49h-3.44c-4.99,0-9.04-3.81-9.04-8.48l.54-8.06s.07.01.11.01ZM98.88,28.71h0s0,0,0,0h0ZM77.07,19.91c.03-.83.59-1.53,1.35-1.79l-.33,4.84c0,1.92.63,3.71,1.69,5.19-.26.13-.54.2-.84.2h-.3c-.5,0-.96-.19-1.3-.55-.34-.35-.52-.82-.5-1.32l.23-6.58Z"/>
    <path class="cls-23" d="M86.18,20.42l.08-.51c-.29-.27-.68-.44-1.11-.44h-2.69c-.89,0-1.61.72-1.61,1.61s.72,1.61,1.61,1.61h2.69c.19,0,.37-.04.54-.1l.49-2.17Z"/>
    <path class="cls-23" d="M96.76,19.47h-2.7c-.35,0-.67.12-.94.31l.1.68.5,2.21c.11.02.22.04.34.04h2.7c.89,0,1.61-.72,1.61-1.61s-.72-1.61-1.61-1.61Z"/>
    <path class="cls-17" d="M92.21,18.77s0-.06,0-.09c-.02-.29,0-.7.12-1.06h-5.25c.16.45.14.98.1,1.26h-.03c-.01.29-.09.79-.23,1.68l-.76,3.39c-.06.28.01.57.2.77.37.41.79.74,1.26.98.64.33,1.33.51,2.09.49h0c.76.02,1.45-.15,2.09-.49.47-.24.89-.57,1.26-.98.19-.21.26-.5.2-.77l-.76-3.37-.28-1.82Z"/>
    <path class="cls-4" d="M80.7,17.63h5.45s.08.01.12.06c.17.2.22.73.16,1.08l-.05.3c-.36-.22-.78-.36-1.23-.36h-2.69c-1.3,0-2.36,1.06-2.36,2.36s1.06,2.36,2.36,2.36h2.69c.12,0,.24-.02.36-.04l-.09.39c-.12.51.02,1.05.37,1.44.42.47.92.86,1.47,1.14.73.38,1.52.57,2.37.57.02,0,.05,0,.07,0,.85,0,1.69-.18,2.44-.57.55-.29,1.04-.67,1.47-1.14.35-.39.49-.93.37-1.44l-.08-.37c.05,0,.11.02.16.02h2.7c1.3,0,2.36-1.06,2.36-2.36s-1.06-2.36-2.36-2.36h-2.7c-.38,0-.74.1-1.06.26l-.03-.18v-.03s0,0,0,0c-.05-.35,0-.88.16-1.07.04-.05.08-.06.11-.06h5.46c.21,0,.38-.17.38-.38s-.17-.38-.38-.38h-18c-.21,0-.38.17-.38.38s.17.38.38.38ZM98.37,21.08c0,.89-.72,1.61-1.61,1.61h-2.7c-.12,0-.23-.01-.34-.04l-.5-2.21-.1-.68c.26-.19.59-.31.94-.31h2.7c.89,0,1.61.72,1.61,1.61ZM92.49,20.59l.76,3.37c.06.28-.01.56-.2.77-.36.41-.79.74-1.26.98-.64.33-1.33.51-2.09.49h0c-.75.02-1.45-.15-2.09-.49-.47-.24-.89-.57-1.26-.98-.19-.21-.26-.5-.2-.77l.76-3.39c.14-.89.21-1.39.23-1.68h.03c.04-.27.06-.8-.1-1.25h5.25c-.13.36-.14.76-.12,1.06,0,.03,0,.06,0,.09l.28,1.82ZM82.46,22.69c-.89,0-1.61-.72-1.61-1.61s.72-1.61,1.61-1.61h2.69c.43,0,.82.17,1.11.44l-.08.51-.49,2.17c-.17.06-.35.1-.54.1h-2.69Z"/>
  </g>
  <g>
    <path class="cls-19" d="M80.8,44.53s-.04-.03-.08-.06c-.48-.38-1.04-.6-1.63-.8-.01.04-.04.08-.05.12-.1.32-.22.63-.38.91-.17.31-.5.77-.88,1.05-.05.04-.1.07-.16.11-.05.03-.13.08-.15.11.07.12.11.23.15.34,1.16-.15,2.19-.71,3.13-1.71.02-.03.04-.05.05-.06Z"/>
    <path class="cls-4" d="M81.57,44.47c-.02-.27-.21-.46-.39-.6-.59-.47-1.26-.72-1.93-.95.07-.46.03-.9-.11-1.3-.21-.56-.53-.74-.9-.96-.03-.02-.08-.05-.09-.06-.01-.02-.02-.06-.02-.14,0-.14-.01-.35-.16-.57-.16-.23-.38-.45-.66-.64-.39-.27-.82-.44-1.23-.6l-.38-.15c-.5-.96-1.32-1.65-2.32-1.94-.91-.27-1.88-.16-2.76.26-.56-.5-1.19-.99-1.98-1.28-.65-.24-1.04-.38-1.37-.17-.33.21-.36.61-.41,1.34-.08,1.05.18,2.02.49,2.99-.71.53-1.09,1.29-1.37,1.98-.39.96-.45,2.26.22,3.11-1.07.77-1.83,1.84-2.22,3.23-.05.17-.1.43.04.66.14.22.37.3.59.34.4.08.79.12,1.19.12.89,0,1.81-.21,2.81-.62l.05.08c.67,1.04,1.92,1.69,3.05,1.69.37,0,.72-.07,1.03-.21.53-.24,1.01-.29,1.65-.13,1.24.29,2.33-.23,2.91-1.38.18-.36.34-.97.37-1.56,1.35-.16,2.55-.78,3.63-1.92.13-.14.3-.35.28-.63ZM74.56,49.24c-.8-.19-1.45-.13-2.14.18-.94.43-2.47-.15-3.14-1.2l-.19-.29c-.3-.68-.49-1.26-.59-1.91-.01-.18-.04-.5-.33-.7-.11-.07-.21-.15-.31-.22-.13-.09-.26-.19-.39-.28,0,0-.01,0-.02,0-.06-.04-.13-.07-.19-.11-.03-.01-.05-.03-.08-.05-.13-.07-.26-.13-.33-.21-.56-.6-.49-1.7-.18-2.46.28-.69.61-1.4,1.3-1.81.04-.03.09-.06.13-.09.01-.01.03-.02.04-.03.01-.01.02-.02,0-.02h0c.64-.05.95-.45,1.17-.83.18-.28.47-.62.75-.9,0,0,0,0,0,0,.14-.14.28-.29.42-.43.09-.1.19-.2.28-.3.76-.41,1.61-.51,2.39-.28.79.24,1.46.79,1.86,1.57.14.27.35.34.54.41l.23.09c.39.15.76.3,1.08.52.2.14.36.29.47.44.03.04.03.07.03.17,0,.13,0,.31.12.5.1.18.26.27.37.33.35.2.46.28.57.57.1.27.13.59.07.92-.02.1-.04.19-.06.29-.1.45-.25.86-.45,1.23-.17.31-.45.64-.68.81-.03.02-.07.04-.1.07-.18.11-.55.34-.49.79.01.12.06.22.11.32.04.1.07.24.08.41.03.53-.13,1.19-.29,1.53-.43.85-1.17,1.2-2.07.99ZM64.75,48.31s-.05-.01-.07-.02c0-.01,0-.03.01-.05.37-1.31,1.06-2.28,2.09-2.96.22.11.42.26.63.41.11.08.22.16.32.22.01.02.02.11.02.15,0,.06,0,.11.02.16.08.52.24,1.06.48,1.65-1.29.52-2.41.65-3.51.43ZM67.61,36.78c.02-.27.04-.6.08-.75.15.02.46.14.69.22.62.23,1.15.62,1.63,1.03-.02.02-.04.04-.06.06-.26.27-.5.54-.78.75-.23.19-.35.41-.44.6l-.06.12c-.19.34-.32.45-.59.47-.03,0-.06,0-.09.01-.26-.86-.45-1.67-.39-2.52ZM77.47,45.95s.1-.08.15-.11c.06-.04.11-.07.16-.11.38-.29.71-.75.88-1.05.16-.28.27-.59.38-.91.01-.04.04-.07.05-.12.59.2,1.15.42,1.63.8.04.03.06.05.08.06-.01.02-.03.04-.05.06-.95,1-1.97,1.56-3.13,1.71-.03-.11-.08-.23-.15-.34Z"/>
    <path class="cls-1" d="M76.92,46.72c0-.17-.04-.31-.08-.41-.05-.1-.09-.2-.11-.32-.05-.45.32-.68.49-.79.04-.02.07-.04.1-.07.23-.17.51-.51.68-.81.2-.37.35-.78.45-1.23.02-.1.04-.19.06-.29.05-.33.03-.65-.07-.92-.11-.29-.22-.37-.57-.57-.1-.06-.26-.15-.37-.33-.11-.19-.12-.37-.12-.5,0-.1,0-.13-.03-.17-.11-.15-.26-.3-.47-.44-.32-.22-.69-.36-1.08-.52l-.23-.09c-.19-.06-.4-.14-.54-.41-.41-.78-1.07-1.34-1.86-1.57-.78-.23-1.63-.13-2.39.28-.09.1-.19.2-.28.3-.14.14-.27.29-.42.43,0,0,0,0,0,0-.29.28-.57.62-.75.9-.22.39-.52.78-1.17.83h0s0,0,0,.02c-.01,0-.03.02-.04.03-.04.03-.09.06-.13.09-.69.41-1.02,1.11-1.3,1.81-.31.76-.38,1.86.18,2.46.07.08.2.14.33.21.03.01.05.03.08.05.06.04.13.07.19.11,0,0,.01,0,.02,0,.13.09.26.18.39.28.1.07.21.15.31.22.3.2.32.53.33.7.1.65.28,1.23.59,1.91l.19.29c.67,1.05,2.2,1.63,3.14,1.2.68-.31,1.34-.37,2.14-.18.9.21,1.64-.14,2.07-.99.17-.33.32-1,.29-1.53ZM74.64,44.46c-.34.83-1.06,1.35-1.89,1.35h0c-.85,0-1.59-.6-1.92-1.55-.38-1.07-.13-2.23.6-2.81.2-.16.46-.24.79-.26.76-.03,1.46.23,1.98.73.64.61.82,1.64.45,2.55Z"/>
    <path class="cls-19" d="M67.78,46.23s-.01-.1-.02-.16c0-.05,0-.13-.02-.15-.1-.06-.21-.14-.32-.22-.21-.15-.42-.3-.63-.41-1.03.68-1.72,1.65-2.09,2.96,0,.02,0,.03-.01.05.02,0,.04.01.07.02,1.1.23,2.22.09,3.51-.43-.24-.6-.4-1.13-.48-1.65Z"/>
    <path class="cls-19" d="M68.09,39.29c.26-.02.4-.13.59-.47l.06-.12c.09-.18.21-.41.44-.6.28-.22.52-.48.78-.75.02-.02.04-.04.06-.06-.48-.42-1-.8-1.63-1.03-.24-.09-.55-.2-.69-.22-.04.14-.06.47-.08.75-.06.86.13,1.66.39,2.52.03,0,.06-.01.09-.01Z"/>
    <path class="cls-2" d="M73.67,42.46c-.34-.33-.83-.52-1.34-.52-.03,0-.06,0-.09,0-.17,0-.29.04-.36.09-.54.43-.59,1.32-.36,1.98.09.25.43,1.04,1.22,1.05h0c.52,0,.97-.33,1.19-.88.21-.52.21-1.26-.28-1.72h0Z"/>
    <path class="cls-4" d="M72.21,41.19c-.34.02-.59.1-.79.26-.73.58-.97,1.74-.6,2.81.33.95,1.07,1.55,1.92,1.55h0c.83,0,1.55-.52,1.89-1.35.37-.91.19-1.93-.45-2.55-.51-.49-1.22-.76-1.98-.73ZM73.95,44.18c-.22.55-.67.88-1.19.88h0c-.79,0-1.13-.8-1.22-1.05-.23-.66-.18-1.55.36-1.98.07-.05.19-.09.36-.09.03,0,.06,0,.09,0,.5,0,.99.19,1.34.52h0c.49.47.49,1.2.28,1.73Z"/>
  </g>
  <g>
    <path class="cls-13" d="M70.16,47.06s-.02-.06-.22-.22c-.78-.62-1.68-.96-2.64-1.28-.04.15-.1.3-.15.45-.03.11-.07.21-.1.32-.12.32-.25.62-.41.9-.24.44-.71,1.09-1.25,1.5-.07.05-.14.1-.22.15-.24.15-.3.2-.29.27,0,.02.03.08.05.12.09.19.14.38.18.58,0,.02.01.03.02.05,1.82-.19,3.42-1.05,4.9-2.6.15-.16.16-.23.16-.23Z"/>
    <path d="M70.91,47.01c-.02-.33-.27-.57-.5-.76-.89-.71-1.92-1.08-2.95-1.42,0-.05.02-.1.03-.14.1-.64.05-1.28-.16-1.83-.27-.72-.65-.98-1.25-1.32-.08-.04-.18-.1-.21-.15-.04-.08-.05-.15-.05-.29,0-.2-.01-.46-.21-.75-.22-.32-.53-.62-.93-.9-.56-.39-1.18-.63-1.79-.87l-.46-.18c-.14-.05-.15-.05-.19-.12-.72-1.38-1.9-2.36-3.32-2.78-1.34-.4-2.78-.24-4.08.42-.84-.76-1.77-1.49-2.95-1.92-.94-.34-1.46-.53-1.87-.27-.41.26-.45.83-.52,1.85-.11,1.55.27,3,.74,4.46-1.1.76-1.64,1.91-2.06,2.95-.57,1.41-.66,3.35.4,4.55-1.65,1.13-2.75,2.7-3.35,4.8-.07.24-.13.56.04.83.16.27.47.37.75.42.57.12,1.14.18,1.73.18,1.33,0,2.72-.33,4.23-.96l.16.24c.96,1.49,2.74,2.42,4.35,2.42.52,0,1.02-.1,1.46-.3.83-.38,1.57-.44,2.56-.21,1.75.41,3.28-.32,4.1-1.95.27-.54.51-1.48.53-2.37,2.02-.2,3.79-1.12,5.41-2.83.17-.18.39-.45.37-.8ZM60.68,54.22c-1.15-.27-2.06-.19-3.04.26-1.49.68-3.81-.2-4.87-1.85l-.3-.45c-.46-1.02-.73-1.89-.87-2.73,0-.05-.01-.1-.01-.15-.02-.26-.05-.66-.41-.9-.16-.11-.31-.22-.47-.33-.19-.14-.38-.28-.57-.4-.01,0-.02-.01-.03-.02-.08-.05-.16-.09-.24-.13-.05-.02-.09-.05-.13-.07-.21-.11-.41-.21-.54-.35-.89-.95-.78-2.65-.3-3.83.42-1.05.93-2.13,1.99-2.76.06-.04.13-.08.19-.13.05-.04.13-.1.16-.1.87-.07,1.28-.59,1.59-1.15.28-.43.71-.94,1.14-1.36,0,0,.01-.01.02-.02.09-.09.17-.18.26-.26.12-.12.24-.24.35-.37.08-.08.15-.16.23-.24.07-.07.14-.14.21-.22,1.17-.65,2.48-.81,3.69-.45,1.22.36,2.24,1.22,2.86,2.41.18.34.44.43.61.48l.43.17c.57.22,1.15.45,1.64.79.32.22.57.46.74.7.07.1.07.18.08.35,0,.18.01.41.15.65.13.22.33.34.48.42.52.31.74.45.92.94.16.43.2.93.12,1.45-.02.15-.05.29-.08.44-.15.69-.38,1.31-.68,1.87-.22.4-.63.95-1.05,1.26-.05.04-.11.07-.17.11-.27.16-.71.44-.65.99.02.15.07.26.14.42.07.17.12.4.13.67.04.82-.2,1.84-.46,2.35-.66,1.32-1.84,1.88-3.26,1.55ZM46.19,52.84c-.19-.04-.25-.07-.26-.07,0,0,0,0,0,0,0-.01,0-.08.04-.24.58-2.02,1.64-3.5,3.25-4.53.37.18.7.42,1.06.68.16.12.32.23.49.35.06.04.07.16.09.34,0,.08.01.15.02.22.13.81.38,1.63.77,2.57-2,.84-3.75,1.06-5.46.71ZM50.26,35.61c.04-.52.09-1.17.18-1.27.01,0,.03,0,.05,0,.2,0,.75.2,1.16.35,1.01.37,1.85,1.01,2.61,1.68-.07.08-.15.15-.22.23-.39.41-.75.8-1.17,1.13-.31.25-.47.57-.6.82l-.09.18c-.3.55-.56.75-1.01.79-.1,0-.18.04-.26.07-.43-1.36-.74-2.62-.64-3.98ZM65.09,49.84c-.04-.19-.09-.38-.18-.58-.02-.04-.05-.1-.05-.12,0-.06.06-.12.29-.27.08-.05.16-.1.22-.15.54-.41,1.01-1.06,1.25-1.5.16-.28.29-.59.41-.9.04-.1.07-.21.1-.32.05-.15.11-.29.15-.45.96.32,1.87.66,2.64,1.28.2.16.22.22.22.22,0,0,0,.07-.16.23-1.47,1.56-3.08,2.41-4.9,2.6,0-.02-.01-.03-.02-.05Z"/>
    <path class="cls-22" d="M64.4,50.31c-.02-.27-.06-.5-.13-.67-.07-.16-.13-.27-.14-.42-.06-.56.38-.83.65-.99.06-.04.12-.07.17-.11.42-.31.83-.86,1.05-1.26.3-.55.54-1.18.68-1.87.03-.14.06-.29.08-.44.08-.52.04-1.02-.12-1.45-.18-.49-.4-.63-.92-.94-.15-.09-.35-.21-.48-.42-.14-.24-.15-.47-.15-.65,0-.17,0-.25-.08-.35-.17-.25-.42-.48-.74-.7-.49-.34-1.07-.57-1.64-.79l-.43-.17c-.17-.06-.43-.15-.61-.48-.62-1.19-1.64-2.05-2.86-2.41-1.21-.36-2.52-.2-3.69.45-.07.07-.14.14-.21.22-.08.08-.15.16-.23.24-.12.12-.24.24-.35.37-.09.09-.17.18-.26.26,0,0-.01.01-.02.02-.43.42-.86.93-1.14,1.36-.31.56-.72,1.08-1.59,1.15-.02,0-.1.07-.16.1-.06.05-.13.09-.19.13-1.07.63-1.57,1.71-1.99,2.76-.48,1.18-.58,2.88.3,3.83.13.14.33.24.54.35.05.02.09.05.13.07.08.05.16.09.24.13.01,0,.02.01.03.02.2.13.38.27.57.4.15.11.31.22.47.33.37.25.39.64.41.9,0,.05,0,.11.01.15.13.84.41,1.71.87,2.73l.3.45c1.06,1.65,3.38,2.53,4.87,1.85.98-.45,1.89-.53,3.04-.26,1.41.33,2.6-.24,3.26-1.55.26-.52.5-1.53.46-2.35ZM60.68,46.91c-.48,1.18-1.46,1.88-2.63,1.88h-.01c-1.18,0-2.21-.84-2.67-2.17-.43-1.24-.36-3.01.83-3.96.26-.21.61-.32,1.07-.34,1.04-.04,2.06.33,2.79,1.02.89.86,1.15,2.29.63,3.57Z"/>
    <path class="cls-13" d="M50.87,49.57c-.01-.07-.02-.14-.02-.22-.01-.18-.03-.3-.09-.34-.16-.11-.33-.23-.49-.35-.35-.26-.69-.5-1.06-.68-1.61,1.03-2.68,2.52-3.25,4.53-.05.17-.04.23-.04.24,0,0,0,0,0,0,0,0,.07.03.26.07,1.71.35,3.45.13,5.46-.71-.39-.93-.64-1.76-.77-2.57Z"/>
    <path class="cls-13" d="M51.17,39.51c.45-.04.71-.24,1.01-.79l.09-.18c.13-.26.29-.57.6-.82.41-.33.78-.72,1.17-1.13.07-.08.15-.15.22-.23-.75-.67-1.59-1.31-2.61-1.68-.41-.15-.96-.35-1.16-.35-.02,0-.04,0-.05,0-.09.1-.14.75-.18,1.27-.1,1.35.21,2.62.64,3.98.08-.04.17-.07.26-.07Z"/>
    <path class="cls-20" d="M57.43,43.07s-.09,0-.13,0c-.29.01-.5.07-.63.18-.86.69-.95,2.1-.59,3.13.36,1.04,1.1,1.67,1.97,1.67h0c.85,0,1.57-.53,1.93-1.41.33-.83.33-2-.45-2.75-.54-.52-1.32-.82-2.1-.82Z"/>
    <path class="cls-4" d="M57.26,42.32c-.46.02-.81.13-1.07.34-1.19.95-1.26,2.72-.83,3.96.47,1.34,1.49,2.17,2.67,2.17h.01c1.17,0,2.15-.7,2.63-1.88.52-1.28.26-2.71-.63-3.57-.73-.7-1.75-1.07-2.79-1.02ZM59.98,46.63c-.36.89-1.08,1.41-1.93,1.41h0c-.87,0-1.61-.63-1.97-1.67-.36-1.03-.27-2.44.59-3.13.13-.11.34-.16.63-.18.04,0,.09,0,.13,0,.78,0,1.56.3,2.1.82.78.75.79,1.92.45,2.75Z"/>
  </g>
  <g>
    <path class="cls-14" d="M132.47,40.44v.02s-.36-.24-.36-.24l-.35-.24c-.9-.49-1.91-.76-2.97-.76-.49,0-.98.06-1.48.18-3.32.81-5.35,4.17-4.54,7.49.39,1.61,1.39,2.96,2.81,3.82,1.41.86,3.08,1.11,4.68.72,1.61-.39,2.96-1.39,3.82-2.81.86-1.41,1.11-3.08.72-4.68-.36-1.46-1.21-2.66-2.34-3.49ZM125.36,44.02c-.07.02-.15.03-.22.03-.16,0-.33-.04-.47-.13-.21-.13-.35-.33-.41-.56-.12-.49.18-.98.67-1.1.24-.06.48-.02.69.11.21.13.35.33.41.56.06.24.02.48-.11.69-.13.21-.33.35-.56.41ZM127.47,44.87c-.13.21-.33.36-.56.41-.07.02-.15.03-.22.03-.41,0-.78-.28-.89-.69-.06-.24-.02-.48.1-.69s.33-.35.56-.41c.23-.06.48-.02.69.1.21.13.35.33.41.56.06.24.02.48-.1.69ZM127.94,43.39c-.07.02-.15.03-.22.03-.16,0-.33-.04-.47-.13-.21-.13-.35-.33-.41-.56-.06-.24-.02-.48.11-.69.13-.21.33-.35.56-.41.23-.06.48-.02.69.1.21.13.35.33.41.56.12.49-.18.98-.67,1.1Z"/>
    <path class="cls-12" d="M127.72,42.18s-.05,0-.08,0h0c-.08.02-.15.07-.2.15-.04.07-.06.16-.04.24.02.08.07.15.15.2.07.05.16.06.24.04.08-.02.15-.07.2-.15.04-.07.06-.16.04-.24-.02-.08-.07-.15-.15-.2-.05-.03-.11-.05-.17-.05Z"/>
    <path class="cls-4" d="M128.19,41.72c-.21-.13-.46-.16-.69-.1-.24.06-.44.2-.56.41-.13.21-.16.45-.11.69.06.24.21.44.41.56.14.09.31.13.47.13.07,0,.15,0,.22-.03.49-.12.79-.61.67-1.1-.06-.24-.21-.44-.41-.56ZM128,42.67c-.04.07-.12.12-.2.15-.08.02-.17,0-.24-.04-.07-.04-.12-.11-.15-.2-.02-.08,0-.17.04-.24.04-.07.12-.12.2-.15h0s.05,0,.08,0c.06,0,.12.02.17.05.07.04.12.11.15.2.02.08,0,.17-.04.24Z"/>
    <path class="cls-12" d="M125.15,42.81s-.05,0-.08,0h0c-.08.02-.15.07-.2.15-.04.07-.06.16-.04.24.02.08.07.15.15.2.07.04.16.06.24.04.08-.02.15-.07.2-.15.04-.07.06-.16.04-.24-.02-.08-.07-.15-.15-.2-.05-.03-.11-.05-.17-.05Z"/>
    <path class="cls-4" d="M126.03,42.92c-.06-.24-.21-.44-.41-.56-.21-.13-.45-.16-.69-.11-.49.12-.79.61-.67,1.1.06.24.21.44.41.56.14.09.31.13.47.13.07,0,.15,0,.22-.03.24-.06.44-.2.56-.41.13-.21.16-.45.11-.69ZM125.42,43.3c-.04.07-.12.12-.2.15-.08.02-.17,0-.24-.04-.07-.04-.12-.11-.15-.2-.02-.08,0-.17.04-.24.04-.07.12-.12.2-.15h0s.05,0,.08,0c.06,0,.12.02.17.05.07.04.12.11.15.2.02.08,0,.17-.04.24Z"/>
    <path class="cls-12" d="M126.69,44.08s-.05,0-.08,0c-.08.02-.15.07-.2.15-.04.07-.06.16-.04.24.04.17.22.28.39.24.08-.02.15-.07.2-.15.04-.07.06-.16.04-.24-.02-.08-.07-.15-.15-.2-.05-.03-.11-.05-.17-.05Z"/>
    <path class="cls-4" d="M127.16,43.62c-.21-.13-.46-.16-.69-.1-.24.06-.44.2-.56.41s-.16.45-.1.69c.1.42.48.69.89.69.07,0,.14,0,.22-.03.24-.06.44-.2.56-.41s.16-.45.1-.69c-.06-.24-.21-.44-.41-.56ZM126.97,44.57c-.04.07-.12.13-.2.15-.17.04-.35-.06-.39-.24-.02-.08,0-.17.04-.24.04-.07.12-.13.2-.15.03,0,.05,0,.08,0,.06,0,.12.02.17.05.07.04.12.11.15.2.02.08,0,.17-.04.24Z"/>
    <path class="cls-13" d="M132.18,39.28c.34-.88.85-2.96-.9-4.78-.83,1.6-.46,3.59.9,4.78Z"/>
    <path class="cls-13" d="M132.96,39.81c.78.41,1.67.54,2.54.37.88-.17,1.66-.62,2.23-1.28-2.34-.97-4.08.27-4.78.91Z"/>
    <path class="cls-4" d="M138.52,38.4c-2.33-1.21-4.24-.47-5.37.28.28-1.33.27-3.37-1.71-5.1l-.33-.29-.25.37c-1.06,1.56-1.05,3.53-.15,5.05-1.13-.33-2.36-.38-3.58-.08-3.74.92-6.03,4.7-5.11,8.44.44,1.81,1.57,3.34,3.16,4.3,1.1.67,2.34,1.01,3.6,1.01.56,0,1.12-.07,1.68-.2,1.81-.44,3.34-1.57,4.3-3.16.96-1.59,1.25-3.47.81-5.28-.26-1.04-.74-1.97-1.38-2.75.19.02.38.04.57.04.29,0,.59-.03.89-.08,1.24-.23,2.31-.94,3.02-1.98l.25-.37-.39-.2ZM135.5,40.18c-.88.17-1.76.03-2.54-.37.69-.64,2.44-1.88,4.78-.91-.58.67-1.36,1.12-2.23,1.28ZM134.81,43.93c.39,1.61.14,3.27-.72,4.68-.86,1.42-2.21,2.41-3.82,2.81-1.61.4-3.27.14-4.68-.72-1.42-.86-2.41-2.21-2.81-3.82-.81-3.32,1.22-6.68,4.54-7.49.49-.12.99-.18,1.48-.18,1.05,0,2.07.27,2.97.76l.35.24.36.24v-.02c1.13.83,1.99,2.03,2.34,3.49ZM132.18,39.28c-1.36-1.19-1.74-3.17-.9-4.78,1.76,1.82,1.24,3.9.9,4.78Z"/>
  </g>
  <g>
    <g>
      <path class="cls-8" d="M10.03,90v-32.24h12.24c3.83,0,6.87,1,9.14,3,2.27,2,3.4,4.8,3.4,8.39v7.32c0,4.3-1.26,7.63-3.78,9.99-2.52,2.36-5.89,3.54-10.11,3.54h-10.89ZM21.32,63.9h-3.98v19.95h3.4c4.53,0,6.8-2.54,6.8-7.62v-5.96c0-4.25-2.07-6.37-6.21-6.37Z"/>
      <path class="cls-8" d="M56.56,90l-1.72-5.58h-11.04l-1.68,5.58h-7.6l10.75-32.24h8.11l10.75,32.24h-7.57ZM49.32,66.39l-3.55,11.54h7.09l-3.54-11.54Z"/>
      <path class="cls-8" d="M64.85,78.53h7.27v1.66c0,1.71.49,2.95,1.46,3.71.97.77,2.09,1.15,3.36,1.15s2.22-.28,3-.83c.78-.55,1.23-1.33,1.35-2.34.22-1.81-.61-3.07-2.49-3.77l-9.17-3.51c-1.51-.55-2.72-1.48-3.62-2.77s-1.35-2.92-1.35-4.88v-1.43c0-1.58.37-2.98,1.12-4.2.74-1.22,1.72-2.17,2.94-2.85,1.22-.68,2.49-1.18,3.82-1.51,1.33-.33,2.69-.49,4.08-.49,1.51,0,2.93.18,4.26.53s2.55.89,3.67,1.62c1.12.73,2.01,1.71,2.67,2.94.66,1.23.99,2.67.99,4.3v2.87h-7.31v-2.04c0-1.38-.46-2.44-1.39-3.19-.93-.74-1.94-1.11-3.03-1.11-1.17,0-2.12.26-2.85.77-.73.52-1.13,1.23-1.21,2.13-.15,1.73.52,2.88,2.01,3.43l8.52,3.24c1.92.73,3.41,1.77,4.44,3.13,1.04,1.36,1.55,2.95,1.55,4.79v1.73c0,2.82-1.08,5.12-3.23,6.9-2.16,1.79-5.17,2.68-9.05,2.68-1.54,0-2.97-.2-4.31-.58-1.34-.39-2.59-.98-3.75-1.77-1.16-.79-2.07-1.9-2.74-3.34-.67-1.43-1.01-3.09-1.01-4.98v-2Z"/>
      <path class="cls-8" d="M91.42,90v-32.24h22.04v6.45h-14.51v7.96h13.89v6.33h-13.89v11.5h-7.53Z"/>
      <path class="cls-8" d="M135.39,90l-1.72-5.58h-11.04l-1.68,5.58h-7.6l10.75-32.24h8.11l10.75,32.24h-7.57ZM128.16,66.39l-3.54,11.54h7.09l-3.55-11.54Z"/>
      <path class="cls-8" d="M165.18,90l-1.72-5.58h-11.04l-1.68,5.58h-7.6l10.75-32.24h8.11l10.75,32.24h-7.57ZM157.95,66.39l-3.55,11.54h7.09l-3.54-11.54Z"/>
    </g>
    <g>
      <path class="cls-12" d="M10.03,90v-32.24h12.24c3.83,0,6.87,1,9.14,3,2.27,2,3.4,4.8,3.4,8.39v7.32c0,4.3-1.26,7.63-3.78,9.99-2.52,2.36-5.89,3.54-10.11,3.54h-10.89ZM21.32,63.9h-3.98v19.95h3.4c4.53,0,6.8-2.54,6.8-7.62v-5.96c0-4.25-2.07-6.37-6.21-6.37Z"/>
      <path class="cls-12" d="M56.56,90l-1.72-5.58h-11.04l-1.68,5.58h-7.6l10.75-32.24h8.11l10.75,32.24h-7.57ZM49.32,66.39l-3.55,11.54h7.09l-3.54-11.54Z"/>
      <path class="cls-12" d="M64.85,78.53h7.27v1.66c0,1.71.49,2.95,1.46,3.71.97.77,2.09,1.15,3.36,1.15s2.22-.28,3-.83c.78-.55,1.23-1.33,1.35-2.34.22-1.81-.61-3.07-2.49-3.77l-9.17-3.51c-1.51-.55-2.72-1.48-3.62-2.77s-1.35-2.92-1.35-4.88v-1.43c0-1.58.37-2.98,1.12-4.2.74-1.22,1.72-2.17,2.94-2.85,1.22-.68,2.49-1.18,3.82-1.51,1.33-.33,2.69-.49,4.08-.49,1.51,0,2.93.18,4.26.53s2.55.89,3.67,1.62c1.12.73,2.01,1.71,2.67,2.94.66,1.23.99,2.67.99,4.3v2.87h-7.31v-2.04c0-1.38-.46-2.44-1.39-3.19-.93-.74-1.94-1.11-3.03-1.11-1.17,0-2.12.26-2.85.77-.73.52-1.13,1.23-1.21,2.13-.15,1.73.52,2.88,2.01,3.43l8.52,3.24c1.92.73,3.41,1.77,4.44,3.13,1.04,1.36,1.55,2.95,1.55,4.79v1.73c0,2.82-1.08,5.12-3.23,6.9-2.16,1.79-5.17,2.68-9.05,2.68-1.54,0-2.97-.2-4.31-.58-1.34-.39-2.59-.98-3.75-1.77-1.16-.79-2.07-1.9-2.74-3.34-.67-1.43-1.01-3.09-1.01-4.98v-2Z"/>
      <path class="cls-12" d="M91.42,90v-32.24h22.04v6.45h-14.51v7.96h13.89v6.33h-13.89v11.5h-7.53Z"/>
      <path class="cls-12" d="M135.39,90l-1.72-5.58h-11.04l-1.68,5.58h-7.6l10.75-32.24h8.11l10.75,32.24h-7.57ZM128.16,66.39l-3.54,11.54h7.09l-3.55-11.54Z"/>
      <path class="cls-12" d="M165.18,90l-1.72-5.58h-11.04l-1.68,5.58h-7.6l10.75-32.24h8.11l10.75,32.24h-7.57ZM157.95,66.39l-3.55,11.54h7.09l-3.54-11.54Z"/>
    </g>
    <g>
      <path class="cls-24" d="M22.27,57.76c3.83,0,6.87,1,9.14,3,2.27,2,3.4,4.8,3.4,8.39v7.32c0,4.3-1.26,7.63-3.78,9.99-2.52,2.36-5.89,3.54-10.11,3.54h-10.89v-32.24h12.24M17.34,83.85h3.4c4.53,0,6.8-2.54,6.8-7.62v-5.96c0-4.25-2.07-6.37-6.21-6.37h-3.98v19.95M22.27,57.01h-12.99v33.74h11.64c4.39,0,7.97-1.26,10.62-3.75,2.67-2.5,4.02-6.04,4.02-10.54v-7.32c0-3.8-1.23-6.82-3.65-8.95-2.4-2.11-5.64-3.19-9.63-3.19h0ZM18.09,64.65h3.23c3.73,0,5.46,1.79,5.46,5.62v5.96c0,4.69-1.92,6.87-6.05,6.87h-2.65v-18.45h0Z"/>
      <path class="cls-24" d="M53.38,57.76l10.75,32.24h-7.57l-1.72-5.58h-11.04l-1.68,5.58h-7.6l10.75-32.24h8.11M45.77,77.93h7.09l-3.54-11.54-3.55,11.54M53.92,57.01h-9.2l-.17.51-10.75,32.24-.33.99h9.2l.16-.53,1.52-5.05h9.93l1.55,5.05.16.53h9.16l-.33-.99-10.75-32.24-.17-.51h0ZM46.79,77.18l2.53-8.24,2.53,8.24h-5.06Z"/>
      <path class="cls-24" d="M76.62,56.47c1.51,0,2.93.18,4.26.53s2.55.89,3.67,1.62c1.12.73,2.01,1.71,2.67,2.94.66,1.23.99,2.67.99,4.3v2.87h-7.31v-2.04c0-1.38-.46-2.44-1.39-3.19-.93-.74-1.94-1.11-3.03-1.11-1.17,0-2.12.26-2.85.77-.73.52-1.13,1.23-1.21,2.13-.15,1.73.52,2.88,2.01,3.43l8.52,3.24c1.92.73,3.41,1.77,4.44,3.13,1.04,1.36,1.55,2.95,1.55,4.79v1.73c0,2.82-1.08,5.12-3.23,6.9-2.16,1.79-5.17,2.68-9.05,2.68-1.54,0-2.97-.2-4.31-.58-1.34-.39-2.59-.98-3.75-1.77-1.16-.79-2.07-1.9-2.74-3.34-.67-1.43-1.01-3.09-1.01-4.98v-2h7.27v1.66c0,1.71.49,2.95,1.46,3.71.97.77,2.09,1.15,3.36,1.15s2.22-.28,3-.83c.78-.55,1.23-1.33,1.35-2.34.22-1.81-.61-3.07-2.49-3.77l-9.17-3.51c-1.51-.55-2.72-1.48-3.62-2.77s-1.35-2.92-1.35-4.88v-1.43c0-1.58.37-2.98,1.12-4.2.74-1.22,1.72-2.17,2.94-2.85,1.22-.68,2.49-1.18,3.82-1.51,1.33-.33,2.69-.49,4.08-.49M76.62,55.72c-1.44,0-2.87.17-4.25.51-1.39.34-2.74.87-4.01,1.58-1.33.74-2.41,1.79-3.22,3.11-.81,1.33-1.22,2.88-1.22,4.6v1.43c0,2.11.5,3.89,1.49,5.31.99,1.42,2.32,2.44,3.98,3.05l9.16,3.5c1.55.58,2.18,1.53,2.01,2.98-.1.79-.44,1.39-1.04,1.82-.65.46-1.51.69-2.56.69s-2.05-.32-2.9-.99c-.79-.62-1.18-1.64-1.18-3.12v-2.41h-8.77v2.75c0,1.99.36,3.77,1.08,5.3.72,1.55,1.73,2.77,3,3.64,1.22.83,2.55,1.46,3.96,1.87,1.4.41,2.92.61,4.52.61,4.04,0,7.24-.96,9.53-2.85,2.33-1.93,3.51-4.44,3.51-7.48v-1.73c0-2-.57-3.76-1.71-5.24-1.12-1.46-2.72-2.6-4.77-3.38l-8.52-3.24c-1.18-.44-1.65-1.26-1.53-2.67.06-.69.34-1.19.89-1.58.6-.42,1.41-.64,2.42-.64.93,0,1.77.31,2.57.95.74.6,1.11,1.45,1.11,2.6v2.79h8.81v-3.62c0-1.75-.36-3.32-1.07-4.65-.71-1.34-1.7-2.42-2.92-3.22-1.18-.77-2.49-1.35-3.89-1.72-1.39-.37-2.88-.55-4.45-.55h0Z"/>
      <path class="cls-24" d="M113.46,57.76v6.45h-14.51v7.96h13.89v6.33h-13.89v11.5h-7.53v-32.24h22.04M114.21,57.01h-23.54v33.74h9.03v-11.5h13.89v-7.83h-13.89v-6.46h14.51v-7.95h0Z"/>
      <path class="cls-24" d="M132.21,57.76l10.75,32.24h-7.57l-1.72-5.58h-11.04l-1.68,5.58h-7.6l10.75-32.24h8.11M124.61,77.93h7.09l-3.55-11.54-3.54,11.54M132.75,57.01h-9.2l-.17.51-10.75,32.24-.33.99h9.2l.16-.53,1.52-5.05h9.93l1.55,5.05.16.53h9.16l-.33-.99-10.75-32.24-.17-.51h0ZM125.63,77.18l2.53-8.24,2.53,8.24h-5.06Z"/>
      <path class="cls-24" d="M162,57.76l10.75,32.24h-7.57l-1.72-5.58h-11.04l-1.68,5.58h-7.6l10.75-32.24h8.11M154.4,77.93h7.09l-3.54-11.54-3.55,11.54M162.54,57.01h-9.2l-.17.51-10.75,32.24-.33.99h9.2l.16-.53,1.52-5.05h9.93l1.55,5.05.16.53h9.16l-.33-.99-10.75-32.24-.17-.51h0ZM155.42,77.18l2.53-8.24,2.53,8.24h-5.06Z"/>
    </g>
  </g>
  <g>
    <g>
      <path class="cls-7" d="M79.17,107.59v2.73h-9.64v-1.69l4.36-5.2c.56-.66.93-1.22,1.12-1.67.19-.45.29-.95.29-1.5s-.14-.95-.41-1.2c-.27-.25-.6-.38-.98-.39-.46-.01-.84.12-1.15.39-.31.27-.46.76-.46,1.48v1.01h-3.27v-1.17c0-1.01.23-1.85.7-2.53s1.05-1.17,1.76-1.47c.71-.3,1.52-.46,2.44-.48,1.5-.04,2.68.32,3.55,1.1s1.3,1.85,1.29,3.21c-.01.85-.19,1.63-.54,2.34-.35.71-.95,1.56-1.79,2.54l-2.15,2.52h4.88Z"/>
      <path class="cls-7" d="M80.17,106.7v-6.74c0-1.27.46-2.27,1.39-2.98s2.05-1.06,3.37-1.06c.85,0,1.63.15,2.33.44.7.3,1.28.76,1.74,1.38.45.63.68,1.36.68,2.21v6.74c0,1.27-.46,2.27-1.38,2.98-.92.71-2.04,1.07-3.36,1.07s-2.44-.36-3.37-1.07c-.93-.72-1.39-1.71-1.39-2.98ZM83.43,100.33v6.02c0,.56.13.99.4,1.28.27.3.64.44,1.12.44s.82-.15,1.09-.45c.27-.3.4-.73.4-1.27v-6.02c0-.55-.13-.97-.4-1.28-.27-.31-.63-.46-1.09-.46s-.84.15-1.12.45c-.27.3-.41.73-.41,1.29Z"/>
      <path class="cls-7" d="M100.93,107.59v2.73h-9.64v-1.69l4.36-5.2c.56-.66.93-1.22,1.12-1.67.19-.45.29-.95.29-1.5s-.14-.95-.41-1.2c-.27-.25-.6-.38-.98-.39-.46-.01-.84.12-1.15.39-.31.27-.46.76-.46,1.48v1.01h-3.27v-1.17c0-1.01.23-1.85.7-2.53s1.05-1.17,1.76-1.47c.71-.3,1.52-.46,2.44-.48,1.5-.04,2.68.32,3.55,1.1s1.3,1.85,1.29,3.21c-.01.85-.19,1.63-.54,2.34-.35.71-.95,1.56-1.79,2.54l-2.15,2.52h4.88Z"/>
      <path class="cls-7" d="M111.49,104.28v2.57c0,1.21-.46,2.16-1.38,2.86-.92.7-2.05,1.05-3.4,1.05s-2.51-.34-3.4-1.03-1.34-1.71-1.34-3.08v-6.44c0-1.26.42-2.29,1.27-3.09.84-.8,2-1.2,3.48-1.2s2.51.31,3.32.94,1.21,1.48,1.21,2.57v1.11h-3.1v-.65c0-.44-.14-.78-.42-1.03-.28-.25-.64-.37-1.07-.34-.39.02-.72.15-1,.39-.27.24-.41.6-.41,1.08v1.39c.63-.29,1.43-.44,2.41-.44s1.91.29,2.68.88c.77.59,1.16,1.41,1.16,2.47ZM108.38,106.77v-1.83c0-.45-.15-.79-.45-1.01-.3-.23-.67-.34-1.09-.34s-.81.13-1.13.39c-.32.26-.48.59-.48.99v1.64c0,.51.15.91.45,1.18.3.27.68.41,1.14.41.41,0,.78-.14,1.09-.41.31-.27.47-.61.47-1.01Z"/>
    </g>
    <g>
      <path class="cls-12" d="M79.17,107.59v2.73h-9.64v-1.69l4.36-5.2c.56-.66.93-1.22,1.12-1.67.19-.45.29-.95.29-1.5s-.14-.95-.41-1.2c-.27-.25-.6-.38-.98-.39-.46-.01-.84.12-1.15.39-.31.27-.46.76-.46,1.48v1.01h-3.27v-1.17c0-1.01.23-1.85.7-2.53s1.05-1.17,1.76-1.47c.71-.3,1.52-.46,2.44-.48,1.5-.04,2.68.32,3.55,1.1s1.3,1.85,1.29,3.21c-.01.85-.19,1.63-.54,2.34-.35.71-.95,1.56-1.79,2.54l-2.15,2.52h4.88Z"/>
      <path class="cls-12" d="M80.17,106.7v-6.74c0-1.27.46-2.27,1.39-2.98s2.05-1.06,3.37-1.06c.85,0,1.63.15,2.33.44.7.3,1.28.76,1.74,1.38.45.63.68,1.36.68,2.21v6.74c0,1.27-.46,2.27-1.38,2.98-.92.71-2.04,1.07-3.36,1.07s-2.44-.36-3.37-1.07c-.93-.72-1.39-1.71-1.39-2.98ZM83.43,100.33v6.02c0,.56.13.99.4,1.28.27.3.64.44,1.12.44s.82-.15,1.09-.45c.27-.3.4-.73.4-1.27v-6.02c0-.55-.13-.97-.4-1.28-.27-.31-.63-.46-1.09-.46s-.84.15-1.12.45c-.27.3-.41.73-.41,1.29Z"/>
      <path class="cls-12" d="M100.93,107.59v2.73h-9.64v-1.69l4.36-5.2c.56-.66.93-1.22,1.12-1.67.19-.45.29-.95.29-1.5s-.14-.95-.41-1.2c-.27-.25-.6-.38-.98-.39-.46-.01-.84.12-1.15.39-.31.27-.46.76-.46,1.48v1.01h-3.27v-1.17c0-1.01.23-1.85.7-2.53s1.05-1.17,1.76-1.47c.71-.3,1.52-.46,2.44-.48,1.5-.04,2.68.32,3.55,1.1s1.3,1.85,1.29,3.21c-.01.85-.19,1.63-.54,2.34-.35.71-.95,1.56-1.79,2.54l-2.15,2.52h4.88Z"/>
      <path class="cls-12" d="M111.49,104.28v2.57c0,1.21-.46,2.16-1.38,2.86-.92.7-2.05,1.05-3.4,1.05s-2.51-.34-3.4-1.03-1.34-1.71-1.34-3.08v-6.44c0-1.26.42-2.29,1.27-3.09.84-.8,2-1.2,3.48-1.2s2.51.31,3.32.94,1.21,1.48,1.21,2.57v1.11h-3.1v-.65c0-.44-.14-.78-.42-1.03-.28-.25-.64-.37-1.07-.34-.39.02-.72.15-1,.39-.27.24-.41.6-.41,1.08v1.39c.63-.29,1.43-.44,2.41-.44s1.91.29,2.68.88c.77.59,1.16,1.41,1.16,2.47ZM108.38,106.77v-1.83c0-.45-.15-.79-.45-1.01-.3-.23-.67-.34-1.09-.34s-.81.13-1.13.39c-.32.26-.48.59-.48.99v1.64c0,.51.15.91.45,1.18.3.27.68.41,1.14.41.41,0,.78-.14,1.09-.41.31-.27.47-.61.47-1.01Z"/>
    </g>
    <g>
      <path class="cls-24" d="M74.16,95.88c1.39,0,2.49.37,3.32,1.1.87.78,1.3,1.85,1.29,3.21-.01.85-.19,1.63-.54,2.34-.35.71-.95,1.56-1.79,2.54l-2.15,2.52h4.88v2.73h-9.64v-1.69l4.36-5.2c.56-.66.93-1.22,1.12-1.67.19-.45.29-.95.29-1.5s-.14-.95-.41-1.2c-.27-.25-.6-.38-.98-.39-.02,0-.04,0-.05,0-.44,0-.8.13-1.1.39-.31.27-.46.76-.46,1.48v1.01h-3.27v-1.17c0-1.01.23-1.85.7-2.53s1.05-1.17,1.76-1.47c.71-.3,1.52-.46,2.44-.48.08,0,.16,0,.24,0M74.16,95.13c-.09,0-.17,0-.26,0-1,.02-1.91.21-2.71.54-.84.35-1.55.94-2.09,1.74-.55.81-.83,1.8-.83,2.95v1.92h4.77v-1.76c0-.54.11-.82.2-.91.16-.14.35-.2.6-.2.23,0,.38.07.52.2.11.1.17.33.17.65,0,.45-.08.85-.23,1.21-.16.38-.5.88-1,1.48l-4.36,5.2-.18.21v2.72h11.14v-4.23h-4l1.09-1.28c.89-1.04,1.51-1.92,1.89-2.69.4-.81.61-1.7.62-2.66.01-1.59-.51-2.86-1.54-3.78-.96-.86-2.25-1.29-3.82-1.29h0Z"/>
      <path class="cls-24" d="M84.94,95.92c.85,0,1.63.15,2.33.44.7.3,1.28.76,1.74,1.38.45.63.68,1.36.68,2.21v6.74c0,1.27-.46,2.27-1.38,2.98-.92.71-2.04,1.07-3.36,1.07s-2.44-.36-3.37-1.07c-.93-.72-1.39-1.71-1.39-2.98v-6.74c0-1.27.46-2.27,1.39-2.98s2.05-1.06,3.37-1.06M84.95,108.07c.46,0,.82-.15,1.09-.45.27-.3.4-.73.4-1.27v-6.02c0-.55-.13-.97-.4-1.28-.27-.31-.63-.46-1.09-.46s-.84.15-1.12.45c-.27.3-.41.73-.41,1.29v6.02c0,.56.13.99.4,1.28.27.3.64.44,1.12.44M84.94,95.17c-1.48,0-2.77.41-3.83,1.22-1.12.86-1.69,2.06-1.69,3.57v6.74c0,1.51.57,2.72,1.68,3.58,1.06.82,2.35,1.23,3.83,1.23s2.77-.41,3.82-1.23c1.11-.86,1.67-2.07,1.67-3.58v-6.74c0-1.01-.28-1.9-.82-2.65-.53-.74-1.22-1.29-2.05-1.63-.79-.33-1.67-.5-2.62-.5h0ZM84.95,107.32c-.35,0-.49-.11-.57-.2-.17-.19-.21-.53-.21-.78v-6.02c0-.36.07-.63.22-.79.09-.1.23-.21.56-.21.31,0,.44.11.52.2.14.17.22.43.22.79v6.02c0,.36-.07.62-.21.78-.08.09-.22.2-.53.2h0Z"/>
      <path class="cls-24" d="M95.92,95.88c1.39,0,2.49.37,3.32,1.1.87.78,1.3,1.85,1.29,3.21-.01.85-.19,1.63-.54,2.34-.35.71-.95,1.56-1.79,2.54l-2.15,2.52h4.88v2.73h-9.64v-1.69l4.36-5.2c.56-.66.93-1.22,1.12-1.67.19-.45.29-.95.29-1.5s-.14-.95-.41-1.2c-.27-.25-.6-.38-.98-.39-.02,0-.04,0-.05,0-.44,0-.8.13-1.1.39-.31.27-.46.76-.46,1.48v1.01h-3.27v-1.17c0-1.01.23-1.85.7-2.53s1.05-1.17,1.76-1.47c.71-.3,1.52-.46,2.44-.48.08,0,.16,0,.24,0M95.92,95.13c-.09,0-.17,0-.26,0-1,.02-1.91.21-2.71.54-.84.35-1.55.94-2.09,1.74-.55.81-.83,1.8-.83,2.95v1.92h4.77v-1.76c0-.54.11-.82.2-.91.16-.14.35-.2.6-.2.23,0,.38.07.52.2.11.1.17.33.17.65,0,.45-.08.85-.23,1.21-.16.38-.5.88-1,1.48l-4.36,5.2-.18.21v2.72h11.14v-4.23h-4l1.09-1.28c.89-1.04,1.51-1.92,1.89-2.69.4-.81.61-1.7.62-2.66.01-1.59-.51-2.86-1.54-3.78-.96-.86-2.25-1.29-3.82-1.29h0Z"/>
      <path class="cls-24" d="M106.72,95.92c1.41,0,2.51.31,3.32.94s1.21,1.48,1.21,2.57v1.11h-3.1v-.65c0-.44-.14-.78-.42-1.03-.26-.23-.58-.35-.97-.35-.03,0-.07,0-.11,0-.39.02-.72.15-1,.39-.27.24-.41.6-.41,1.08v1.39c.63-.29,1.43-.44,2.41-.44s1.91.29,2.68.88c.77.59,1.16,1.41,1.16,2.47v2.57c0,1.21-.46,2.16-1.38,2.86-.92.7-2.05,1.05-3.4,1.05s-2.51-.34-3.4-1.03-1.34-1.71-1.34-3.08v-6.44c0-1.26.42-2.29,1.27-3.09.84-.8,2-1.2,3.48-1.2M106.82,108.19c.41,0,.78-.14,1.09-.41.31-.27.47-.61.47-1.01v-1.83c0-.45-.15-.79-.45-1.01-.3-.23-.67-.34-1.09-.34s-.81.13-1.13.39c-.32.26-.48.59-.48.99v1.64c0,.51.15.91.45,1.18.3.27.68.41,1.14.41M106.72,95.17c-1.67,0-3.01.47-4,1.4-1,.94-1.5,2.17-1.5,3.64v6.44c0,1.6.55,2.84,1.63,3.67,1.02.79,2.32,1.19,3.86,1.19s2.8-.4,3.85-1.2c1.12-.85,1.68-2.01,1.68-3.46v-2.57c0-1.27-.46-2.28-1.37-3.01h1.12v-1.86c0-1.32-.5-2.38-1.5-3.16-.94-.73-2.21-1.1-3.78-1.1h0ZM105.99,100.34v-.36c0-.25.05-.43.16-.52.15-.13.32-.2.55-.21h.06c.26,0,.39.09.47.15.08.07.17.19.17.47v.31c-.51.01-.97.07-1.4.16h0ZM106.82,107.44c-.36,0-.53-.12-.64-.22-.05-.05-.21-.19-.21-.63v-1.64c0-.18.06-.29.2-.41.18-.15.39-.22.66-.22s.47.06.64.19c.05.04.16.12.16.42v1.83c0,.18-.06.32-.21.45-.18.15-.37.23-.6.23h0Z"/>
    </g>
  </g>
  <g>
    <path class="cls-21" d="M156.05,45.88s0,0-.01,0c1.04.78,1.67,2.07,1.53,3.35-.05.42-.17.82-.37,1.19.2-.38.33-.78.37-1.21h0c.14-1.27-.49-2.56-1.52-3.34Z"/>
    <path class="cls-21" d="M146.65,43.58s0,0,0-.01c-.49.18-.93.46-1.28.83-.68.71-1.03,1.74-.98,2.83,0,0,0,0,0,0-.05-1.09.31-2.12.98-2.83.35-.37.8-.65,1.29-.83Z"/>
    <path class="cls-21" d="M149.58,37.21c1.32-.08,2.66.52,3.39,1.51.19.26.34.54.44.83,1.09-.47,2.39-.31,3.35.45.67.53,1.13,1.41,1.24,2.4.08.73-.03,1.43-.31,2.02.29-.59.4-1.3.32-2.03-.12-.99-.57-1.87-1.24-2.4-.96-.76-2.26-.92-3.35-.45-.1-.29-.25-.57-.44-.83-.74-1-2.07-1.59-3.39-1.51-1.33.08-2.57.83-3.15,1.9-.1.19-.18.39-.25.59.06-.19.14-.39.25-.58.59-1.08,1.82-1.83,3.15-1.9Z"/>
    <path class="cls-21" d="M146.13,41.94s-.02-.08-.02-.13c0,.04.01.08.02.13Z"/>
    <path class="cls-21" d="M146.45,49.74c.78.59,1.87.72,2.7.32,1.21-.58,1.75-2.05,2.09-3.28.06-.21.27-.33.48-.27.21.06.33.27.27.48-.24.86-.57,1.83-1.14,2.62.02.03.04.06.06.1.41,1.27,1.81,2.16,3.17,2.03,1.37-.13,2.55-1.27,2.7-2.59.15-1.32-.76-2.67-2.07-3.07-.06-.02-.1-.05-.14-.08-.27-.06-.54-.14-.8-.28-.19-.11-.25-.35-.15-.54.11-.19.35-.25.54-.15.83.47,1.96.24,2.58-.54.4-.5.58-1.23.49-1.99-.09-.77-.44-1.47-.95-1.87-.77-.6-1.84-.7-2.7-.27.05.63-.08,1.27-.4,1.84-.11.19-.35.25-.54.15-.19-.11-.25-.35-.15-.54.47-.82.41-1.84-.16-2.61-.57-.78-1.66-1.25-2.71-1.19-1.05.06-2.05.66-2.51,1.5-.64,1.17-.23,2.61.29,3.89.25-.04.51-.05.77-.04.96.05,1.94.46,2.75,1.14.17.14.19.39.05.55-.14.17-.39.19-.55.05-.68-.57-1.49-.91-2.29-.96-.84-.05-1.68.26-2.21.83-.53.55-.81,1.37-.76,2.25.05,1.02.53,1.97,1.29,2.54ZM151.58,43.92c.11-.26.35-.53.64-.44.15.05.27.2.29.39.02.15-.03.29-.07.41-.02.06-.05.13-.07.21.25-.25.47-.44.5-.47.11-.07.35-.19.54-.12.09.03.15.1.18.2.04.13-.08.28-.28.45.1.04.2.11.25.2.03.05.03.11,0,.17-.06.12-.34.23-.66.33.18.08.35.26.34.49-.02.31-.35.5-.67.5,0,0-.02,0-.03,0-.38-.01-.76-.21-.99-.52-.02-.03-.05-.08-.03-.16,0-.04.03-.1.06-.15-.01-.12-.03-.25-.05-.37-.06-.37-.12-.75.04-1.11Z"/>
    <path class="cls-21" d="M146.01,40.83c0-.12.01-.23.02-.35-.01.12-.02.23-.02.35Z"/>
    <path class="cls-21" d="M146.04,41.39c0-.08-.01-.16-.02-.24,0,.08,0,.16.02.24Z"/>
    <path class="cls-21" d="M146.05,40.26c.03-.18.07-.35.12-.52-.05.17-.09.35-.12.52Z"/>
    <path d="M156.03,45.89s0,0,.01,0c.5-.17.96-.47,1.31-.91.13-.17.25-.35.34-.55.28-.59.39-1.3.31-2.02-.12-.99-.57-1.86-1.24-2.4-.96-.76-2.26-.92-3.35-.45-.1-.29-.25-.57-.44-.83-.73-1-2.07-1.59-3.39-1.51-1.33.08-2.56.82-3.15,1.9-.1.19-.18.38-.25.58,0,.02,0,.03-.01.05-.05.17-.09.35-.12.52-.01.07-.01.15-.02.22-.01.12-.02.23-.02.35,0,.11,0,.22.01.33,0,.08,0,.16.02.24.02.14.04.28.07.42,0,.04.01.08.02.13.12.55.3,1.1.51,1.62,0,0,0,0,0,.01-.49.18-.94.46-1.29.83-.67.71-1.03,1.74-.98,2.83,0,0,0,0,0,0,.06,1.26.66,2.43,1.6,3.13.62.46,1.38.7,2.13.7.48,0,.95-.1,1.38-.3.3-.14.56-.33.79-.54.58,1.35,2.03,2.31,3.54,2.31.11,0,.22,0,.34-.02,1.3-.12,2.46-.97,3.04-2.09.19-.37.32-.78.37-1.19.14-1.28-.49-2.57-1.53-3.35ZM145.93,44.95c.54-.56,1.37-.87,2.21-.83.79.04,1.6.38,2.29.96.17.14.41.12.55-.05.14-.17.12-.41-.05-.55-.81-.68-1.79-1.09-2.75-1.14-.26-.01-.51,0-.77.04-.52-1.28-.93-2.72-.29-3.89.45-.83,1.46-1.43,2.51-1.5,1.05-.06,2.14.42,2.71,1.19.57.77.63,1.79.16,2.61-.11.19-.04.43.15.54.19.11.43.04.54-.15.33-.57.45-1.21.4-1.84.85-.43,1.93-.34,2.7.27.5.4.86,1.1.95,1.87.09.76-.09,1.49-.49,1.99-.62.78-1.75,1.01-2.58.54-.19-.11-.43-.04-.54.15-.11.19-.04.43.15.54.25.14.52.23.8.28.04.04.09.07.14.08,1.31.41,2.22,1.76,2.07,3.07-.14,1.32-1.33,2.46-2.7,2.59-1.37.13-2.76-.76-3.17-2.03-.01-.04-.03-.07-.06-.1.57-.78.91-1.76,1.14-2.62.06-.21-.07-.42-.27-.48-.21-.06-.42.07-.48.27-.34,1.22-.88,2.7-2.09,3.28-.83.4-1.92.26-2.7-.32-.76-.57-1.24-1.52-1.29-2.54-.04-.88.24-1.7.76-2.25Z"/>
    <path class="cls-3" d="M152.01,45.23c.36-.08,1.09-.27,1.29-.39-.07-.06-.19-.09-.28-.04l-.67.32.52-.52s.06-.05.11-.1c.08-.07.33-.28.35-.35,0,0-.02,0-.02,0-.01,0-.02,0-.04,0-.08,0-.2.05-.28.1-.12.09-.67.61-.99,1Z"/>
    <path class="cls-3" d="M151.8,45.1c.06-.07.12-.14.19-.22h-.03c.05-.13.09-.26.13-.37.04-.12.08-.22.11-.31.04-.09.07-.2.06-.3,0-.07-.05-.15-.12-.17-.01,0-.03,0-.04,0-.12,0-.24.17-.29.3-.13.3-.08.62-.02.97,0,.03.01.07.02.1Z"/>
    <path class="cls-3" d="M152.76,45.47c-.14-.04-.29-.02-.47.03l-.07.02c-.14.04-.28.07-.44.08.18.24.48.39.78.4.21,0,.43-.1.44-.26,0-.12-.11-.23-.23-.26Z"/>
    <path d="M151.59,45.41c-.03.06-.05.11-.06.15-.01.08,0,.13.03.16.23.31.6.51.99.52,0,0,.02,0,.03,0,.32,0,.65-.18.67-.5.01-.23-.16-.41-.34-.49.32-.1.6-.21.66-.33.03-.05.03-.12,0-.17-.06-.1-.15-.17-.25-.2.2-.17.32-.32.28-.45-.03-.1-.09-.17-.18-.2-.19-.07-.44.05-.54.12-.04.03-.26.22-.5.47.03-.08.05-.15.07-.21.05-.12.09-.26.07-.41-.02-.18-.14-.34-.29-.39-.28-.09-.52.18-.64.44-.16.36-.1.74-.04,1.11.02.12.04.25.05.37ZM151.81,44.02c.05-.13.17-.3.29-.3.01,0,.02,0,.04,0,.07.02.11.1.12.17.01.1-.02.21-.06.3-.04.09-.07.2-.11.31-.04.11-.08.24-.13.36h.03c-.07.08-.13.16-.19.23,0-.04-.01-.07-.02-.1-.05-.35-.11-.67.02-.97ZM153.32,44.14s.02,0,.02,0c-.02.07-.27.28-.35.35-.05.04-.09.08-.11.1l-.52.52.67-.32c.09-.04.21-.02.28.04-.2.12-.93.32-1.29.39.32-.39.86-.91.99-1,.08-.05.2-.1.28-.1.02,0,.03,0,.04,0ZM152.56,45.99c-.3,0-.59-.16-.78-.4.15,0,.3-.04.44-.08l.07-.02c.18-.05.34-.07.47-.03.12.03.24.14.23.26,0,.16-.22.25-.44.26Z"/>
  </g>
</svg>