<?xml version="1.0" encoding="UTF-8"?><svg id="Layer_1" xmlns="http://www.w3.org/2000/svg" viewBox="0 0 335 160"><defs><style>.cls-1{fill:#222221;}</style></defs><g id="g3723"><path id="path3725" class="cls-1" d="M228.45,5.51c0,2.42-1.96,4.38-4.38,4.38s-4.38-1.96-4.38-4.38,1.96-4.38,4.38-4.38,4.38,1.96,4.38,4.38"/></g><g id="g3731"><path id="path3733" class="cls-1" d="M201.57,10.36c1.21,2.1.49,4.78-1.6,5.99-2.1,1.21-4.78.49-5.99-1.6-1.21-2.1-.49-4.78,1.6-5.99,2.1-1.21,4.78-.49,5.99,1.6"/></g><g id="g3739"><path id="path3741" class="cls-1" d="M180.72,28c2.1,1.21,2.81,3.89,1.6,5.99-1.21,2.1-3.89,2.81-5.99,1.6-2.1-1.21-2.81-3.89-1.6-5.99,1.21-2.1,3.89-2.81,5.99-1.6"/></g><g id="g3743"><path id="path3745" class="cls-1" d="M276.64,53.7c2.42,0,4.38,1.96,4.38,4.38s-1.96,4.38-4.38,4.38-4.38-1.96-4.38-4.38,1.96-4.38,4.38-4.38"/></g><g id="g3747"><path id="path3749" class="cls-1" d="M171.49,53.7c2.42,0,4.38,1.96,4.38,4.38s-1.96,4.38-4.38,4.38-4.38-1.96-4.38-4.38,1.96-4.38,4.38-4.38"/></g><g id="g3751"><path id="path3753" class="cls-1" d="M267.41,28c2.1-1.21,4.78-.49,5.99,1.6,1.21,2.1.49,4.78-1.6,5.99-2.1,1.21-4.78.49-5.99-1.6-1.21-2.1-.49-4.78,1.6-5.99"/></g><g id="g3759"><path id="path3761" class="cls-1" d="M246.56,10.36c1.21-2.1,3.89-2.81,5.99-1.6,2.1,1.21,2.81,3.89,1.6,5.99-1.21,2.1-3.89,2.81-5.99,1.6-2.1-1.21-2.81-3.89-1.6-5.99"/></g><path class="cls-1" d="M23.86,102.57c.57.57.85,1.22.85,1.97,0,.81-.28,1.47-.85,1.99-.57.52-1.27.78-2.11.78H5.47c-.84,0-1.55-.28-2.11-.85-.57-.57-.85-1.27-.85-2.11v-28.1c0-.84.28-1.55.85-2.11.57-.57,1.27-.85,2.11-.85h16.28c.84,0,1.55.27,2.11.8.57.53.85,1.22.85,2.07s-.28,1.47-.83,1.97c-.55.5-1.26.75-2.14.75h-13.17v8.26h10.99c.84,0,1.55.27,2.11.8.57.53.85,1.22.85,2.07s-.28,1.47-.83,1.97c-.55.5-1.26.75-2.14.75h-10.99v8.99h13.17c.84,0,1.55.28,2.11.85Z"/><path class="cls-1" d="M56.5,74.06c.52.55.78,1.26.78,2.14v17.6c0,2.69-.57,5.07-1.7,7.15-1.13,2.07-2.72,3.69-4.76,4.86-2.04,1.17-4.37,1.75-7,1.75s-4.97-.58-7.02-1.75c-2.06-1.17-3.65-2.79-4.79-4.86-1.13-2.07-1.7-4.46-1.7-7.15v-17.6c0-.84.29-1.55.88-2.11s1.33-.85,2.24-.85c.78,0,1.46.28,2.04.85.58.57.88,1.27.88,2.11v17.6c0,1.56.34,2.94,1.02,4.16.68,1.21,1.6,2.15,2.75,2.79,1.15.65,2.39.97,3.72.97s2.7-.32,3.91-.97c1.22-.65,2.19-1.58,2.92-2.79.73-1.22,1.09-2.6,1.09-4.16v-17.6c0-.88.24-1.59.73-2.14.49-.55,1.15-.83,1.99-.83s1.52.28,2.04.83Z"/><path class="cls-1" d="M92.25,103.57c.24.42.36.86.36,1.31,0,.58-.19,1.12-.58,1.6-.49.58-1.23.88-2.24.88-.78,0-1.49-.18-2.14-.54-2.33-1.33-3.5-4.03-3.5-8.12,0-1.17-.38-2.09-1.14-2.77-.76-.68-1.86-1.02-3.28-1.02h-9.09v9.43c0,.88-.24,1.59-.7,2.14-.47.55-1.09.83-1.87.83-.94,0-1.76-.28-2.45-.85-.7-.57-1.05-1.27-1.05-2.11v-28.1c0-.84.28-1.55.85-2.11.57-.57,1.27-.85,2.11-.85h14c1.68,0,3.27.45,4.76,1.36,1.49.91,2.68,2.16,3.57,3.74.89,1.59,1.34,3.37,1.34,5.35,0,1.62-.44,3.2-1.31,4.74-.88,1.54-2.01,2.76-3.4,3.67,2.04,1.43,3.16,3.34,3.35,5.74.1.52.15,1.02.15,1.51.13,1.01.26,1.73.39,2.16.13.44.42.77.88,1,.42.26.75.6,1,1.02ZM82.99,89.08c.55-.55,1-1.29,1.36-2.21.36-.92.53-1.92.53-2.99,0-.91-.18-1.74-.53-2.5-.36-.76-.81-1.37-1.36-1.82-.55-.45-1.12-.68-1.7-.68h-10.65v11.03h10.65c.58,0,1.15-.27,1.7-.83Z"/><path class="cls-1" d="M126.64,99.12c-1.43,2.67-3.4,4.79-5.91,6.34-2.51,1.56-5.34,2.33-8.48,2.33s-5.97-.78-8.48-2.33c-2.51-1.56-4.47-3.67-5.88-6.34-1.41-2.67-2.11-5.61-2.11-8.82s.71-6.15,2.11-8.82,3.37-4.79,5.88-6.34c2.51-1.56,5.34-2.33,8.48-2.33s5.97.78,8.48,2.33c2.51,1.56,4.48,3.67,5.91,6.34,1.43,2.67,2.14,5.61,2.14,8.82s-.71,6.15-2.14,8.82ZM121.15,84.39c-.87-1.77-2.09-3.17-3.65-4.2-1.56-1.04-3.31-1.56-5.25-1.56s-3.74.51-5.27,1.53c-1.54,1.02-2.74,2.42-3.6,4.2-.86,1.78-1.29,3.76-1.29,5.93s.43,4.15,1.29,5.93c.86,1.78,2.06,3.18,3.6,4.2,1.54,1.02,3.3,1.53,5.27,1.53s3.69-.52,5.25-1.56c1.56-1.04,2.77-2.44,3.65-4.2.88-1.77,1.31-3.73,1.31-5.91s-.44-4.14-1.31-5.91Z"/><path class="cls-1" d="M160.96,73.65c.29.28.44.59.44.95,0,.23-.05.47-.15.73l-12.98,31.01c-.13.29-.32.53-.58.7-.26.18-.53.27-.83.27s-.56-.08-.8-.24c-.24-.16-.43-.39-.56-.68l-12.93-30.96c-.1-.19-.15-.45-.15-.78,0-.42.15-.76.44-1.02.29-.26.62-.39.97-.39.68,0,1.17.36,1.46,1.07l11.71,28,11.52-28.1c.16-.29.36-.53.61-.7.24-.18.49-.27.75-.27.42,0,.78.14,1.07.41Z"/><path class="cls-1" d="M170.2,106.87c-.29.29-.65.44-1.07.44-.45,0-.82-.14-1.09-.41-.28-.27-.41-.64-.41-1.09v-31.01c0-.45.15-.82.44-1.09.29-.27.66-.41,1.12-.41.42,0,.78.15,1.07.44s.44.65.44,1.07v31.01c-.03.42-.19.78-.49,1.07Z"/><path class="cls-1" d="M182.76,106.63c-1.8-.78-3.54-1.99-5.23-3.65-.39-.32-.58-.71-.58-1.17,0-.39.15-.75.46-1.07.31-.32.66-.49,1.05-.49s.75.16,1.07.49c2.53,2.79,5.69,4.18,9.48,4.18,2.33,0,4.27-.55,5.81-1.65,1.54-1.1,2.31-2.54,2.31-4.33,0-1.39-.38-2.55-1.14-3.48-.76-.92-1.76-1.68-2.99-2.26-1.23-.58-2.8-1.18-4.71-1.8-2.07-.62-3.82-1.3-5.23-2.04-1.41-.75-2.55-1.74-3.43-2.99-.87-1.25-1.31-2.83-1.31-4.74,0-1.72.46-3.24,1.39-4.57.92-1.33,2.22-2.37,3.89-3.14,1.67-.76,3.59-1.14,5.76-1.14,1.98,0,3.83.33,5.57,1,1.73.66,3.12,1.61,4.16,2.84.49.55.73,1.02.73,1.41,0,.36-.16.69-.49,1-.32.31-.68.46-1.07.46-.32,0-.6-.11-.83-.34-.88-1.04-2.04-1.88-3.5-2.53-1.46-.65-2.98-.97-4.57-.97-2.37,0-4.29.53-5.78,1.58-1.49,1.05-2.24,2.49-2.24,4.3s.71,3.32,2.14,4.33c1.43,1,3.47,1.93,6.12,2.77,2.3.68,4.18,1.38,5.64,2.09,1.46.71,2.65,1.73,3.57,3.04.92,1.31,1.39,3.04,1.39,5.18,0,1.65-.48,3.15-1.43,4.5-.96,1.34-2.28,2.41-3.99,3.18-1.7.78-3.64,1.17-5.81,1.17-2.33,0-4.4-.39-6.2-1.17Z"/><path class="cls-1" d="M246.76,102.33c.52.52.78,1.17.78,1.94s-.26,1.37-.78,1.87c-.52.5-1.17.75-1.94.75h-16.53c-.84,0-1.51-.26-1.99-.78-.49-.52-.73-1.18-.73-1.99s.29-1.52.87-2.14l10.6-11.33c1.2-1.3,2.15-2.6,2.84-3.91.7-1.31,1.04-2.52,1.04-3.62,0-1.46-.52-2.72-1.55-3.79-1.04-1.07-2.24-1.6-3.6-1.6-.94,0-1.89.32-2.84.95-.96.63-1.82,1.47-2.6,2.5-.58.78-1.33,1.17-2.24,1.17-.71,0-1.37-.27-1.97-.83-.6-.55-.9-1.17-.9-1.85,0-.49.16-.98.49-1.48.32-.5.81-1.08,1.46-1.73,1.23-1.23,2.66-2.22,4.28-2.97,1.62-.75,3.17-1.12,4.67-1.12,2.14,0,4.02.45,5.64,1.36,1.62.91,2.87,2.16,3.74,3.74.88,1.59,1.31,3.39,1.31,5.4s-.53,4.01-1.58,6.1c-1.05,2.09-2.47,4.09-4.25,6l-6.17,6.56h10.01c.78,0,1.43.26,1.94.78Z"/><path class="cls-1" d="M256.89,105.2c-1.96-1.46-3.44-3.51-4.45-6.15-1-2.64-1.51-5.69-1.51-9.16s.5-6.52,1.51-9.16c1-2.64,2.49-4.69,4.45-6.15,1.96-1.46,4.3-2.19,7.02-2.19s5.06.73,7.02,2.19c1.96,1.46,3.44,3.51,4.45,6.15,1,2.64,1.51,5.69,1.51,9.16s-.5,6.52-1.51,9.16c-1.01,2.64-2.49,4.69-4.45,6.15s-4.3,2.19-7.02,2.19-5.06-.73-7.02-2.19ZM268.8,98.59c1.18-1.98,1.77-4.88,1.77-8.7s-.59-6.72-1.77-8.7c-1.18-1.98-2.81-2.97-4.89-2.97s-3.7.99-4.89,2.97c-1.18,1.98-1.77,4.88-1.77,8.7s.59,6.72,1.77,8.7c1.18,1.98,2.81,2.97,4.89,2.97s3.7-.99,4.89-2.97Z"/><path class="cls-1" d="M302.66,102.33c.52.52.78,1.17.78,1.94s-.26,1.37-.78,1.87c-.52.5-1.17.75-1.94.75h-16.53c-.84,0-1.51-.26-1.99-.78-.49-.52-.73-1.18-.73-1.99s.29-1.52.87-2.14l10.6-11.33c1.2-1.3,2.15-2.6,2.84-3.91.7-1.31,1.04-2.52,1.04-3.62,0-1.46-.52-2.72-1.55-3.79-1.04-1.07-2.24-1.6-3.6-1.6-.94,0-1.89.32-2.84.95-.96.63-1.82,1.47-2.6,2.5-.58.78-1.33,1.17-2.24,1.17-.71,0-1.37-.27-1.97-.83-.6-.55-.9-1.17-.9-1.85,0-.49.16-.98.49-1.48.32-.5.81-1.08,1.46-1.73,1.23-1.23,2.66-2.22,4.28-2.97,1.62-.75,3.17-1.12,4.67-1.12,2.14,0,4.02.45,5.64,1.36,1.62.91,2.87,2.16,3.74,3.74.88,1.59,1.31,3.39,1.31,5.4s-.53,4.01-1.58,6.1c-1.05,2.09-2.47,4.09-4.25,6l-6.17,6.56h10.01c.78,0,1.43.26,1.94.78Z"/><path class="cls-1" d="M324.07,85.54c1.73.99,3.09,2.34,4.08,4.06.99,1.72,1.48,3.63,1.48,5.74s-.62,4.18-1.85,6.03-2.87,3.31-4.91,4.4-4.25,1.63-6.61,1.63c-1.26,0-2.57-.19-3.91-.58-1.34-.39-2.44-.92-3.28-1.6-.39-.32-.71-.78-.97-1.36-.26-.58-.39-1.13-.39-1.65,0-.58.25-1.11.75-1.58.5-.47,1.16-.7,1.97-.7.58,0,1.31.31,2.19.92,1.36.84,2.56,1.26,3.6,1.26,1.33,0,2.58-.31,3.74-.92,1.17-.62,2.1-1.44,2.8-2.48.7-1.04,1.04-2.15,1.04-3.35,0-1.75-.6-3.18-1.8-4.28-1.2-1.1-2.62-1.65-4.28-1.65-.75,0-1.41.1-1.99.29-.58.19-1.28.49-2.09.88-.58.29-1.05.5-1.39.63-.34.13-.69.19-1.05.19-1.26,0-2.16-.34-2.7-1.02-.54-.68-.8-1.49-.8-2.43,0-.32.02-.55.05-.68l1.51-12.06c.13-.68.46-1.24,1-1.68.53-.44,1.17-.66,1.92-.66h14.05c.78,0,1.43.26,1.94.78.52.52.78,1.17.78,1.94s-.26,1.37-.78,1.87c-.52.5-1.17.75-1.94.75h-12.06l-.92,7.05c.62-.36,1.39-.65,2.33-.88.94-.23,1.83-.34,2.67-.34,2.14,0,4.07.49,5.81,1.48Z"/><path class="cls-1" d="M24.21,153.5c.57.53.85,1.22.85,2.07s-.28,1.48-.85,2.02c-.57.53-1.27.8-2.11.8H6.29c-.84,0-1.55-.28-2.11-.85-.57-.57-.85-1.27-.85-2.11v-28.1c0-.84.29-1.55.88-2.11.58-.57,1.33-.85,2.24-.85.81,0,1.51.28,2.09.85.58.57.87,1.27.87,2.11v25.37h12.69c.84,0,1.55.27,2.11.8Z"/><path class="cls-1" d="M56.51,125.14c.52.55.78,1.26.78,2.14v17.6c0,2.69-.57,5.07-1.7,7.15-1.13,2.07-2.72,3.69-4.76,4.86-2.04,1.17-4.37,1.75-7,1.75s-4.97-.58-7.02-1.75c-2.06-1.17-3.65-2.79-4.79-4.86-1.13-2.07-1.7-4.46-1.7-7.15v-17.6c0-.84.29-1.55.88-2.11s1.33-.85,2.24-.85c.78,0,1.46.28,2.04.85.58.57.88,1.27.88,2.11v17.6c0,1.56.34,2.94,1.02,4.16.68,1.21,1.6,2.15,2.75,2.79,1.15.65,2.39.97,3.72.97s2.7-.32,3.91-.97c1.22-.65,2.19-1.58,2.92-2.79.73-1.22,1.09-2.6,1.09-4.16v-17.6c0-.88.24-1.59.73-2.14.49-.55,1.15-.83,1.99-.83s1.52.28,2.04.83Z"/><path class="cls-1" d="M90.09,153.92c.39.52.58,1.12.58,1.8,0,.84-.31,1.54-.92,2.09-.62.55-1.28.83-1.99.83-.94,0-1.73-.42-2.38-1.26l-8.65-11.52-8.41,11.42c-.65.91-1.46,1.36-2.43,1.36-.71,0-1.33-.26-1.85-.78-.52-.52-.78-1.12-.78-1.8s.24-1.38.73-1.99l9.38-12.69-9.38-12.44c-.42-.52-.63-1.1-.63-1.75,0-.81.31-1.51.92-2.09.62-.58,1.3-.88,2.04-.88.94,0,1.73.42,2.38,1.26l8.56,11.37,8.36-11.13c.32-.45.7-.8,1.12-1.05.42-.24.84-.36,1.26-.36.71,0,1.34.28,1.9.85.55.57.83,1.19.83,1.87,0,.62-.21,1.2-.63,1.75l-9.48,12.49,9.48,12.64Z"/><path class="cls-1" d="M118.55,153.65c.57.57.85,1.22.85,1.97,0,.81-.28,1.47-.85,1.99-.57.52-1.27.78-2.11.78h-16.28c-.84,0-1.55-.28-2.11-.85-.57-.57-.85-1.27-.85-2.11v-28.1c0-.84.28-1.55.85-2.11.57-.57,1.27-.85,2.11-.85h16.28c.84,0,1.55.27,2.11.8.57.53.85,1.22.85,2.07s-.28,1.47-.83,1.97c-.55.5-1.26.75-2.14.75h-13.17v8.26h10.99c.84,0,1.55.27,2.11.8.57.53.85,1.22.85,2.07s-.28,1.47-.83,1.97c-.55.5-1.26.75-2.14.75h-10.99v8.99h13.17c.84,0,1.55.28,2.11.85Z"/><path class="cls-1" d="M157.25,125.17c.6.57.9,1.27.9,2.11v28.14c0,.84-.28,1.55-.83,2.11-.55.57-1.28.85-2.19.85s-1.65-.28-2.21-.83c-.57-.55-.85-1.26-.85-2.14v-19.59l-8.02,12.25c-.32.39-.7.7-1.12.95-.42.24-.86.35-1.31.32-.42.03-.84-.07-1.26-.32-.42-.24-.79-.56-1.12-.95l-8.02-12.69v20.03c0,.88-.26,1.59-.78,2.14-.52.55-1.2.83-2.04.83s-1.47-.28-1.99-.85c-.52-.57-.78-1.27-.78-2.11v-28.14c0-.81.3-1.51.9-2.09.6-.58,1.32-.88,2.16-.88.49,0,.97.12,1.46.36.49.24.86.56,1.12.95l10.6,16.28,10.89-16.28c.26-.39.61-.71,1.05-.95s.88-.36,1.34-.36c.81,0,1.51.28,2.11.85Z"/><path class="cls-1" d="M190.69,142.64c1.09,1.39,1.63,3.19,1.63,5.4,0,3.86-1.1,6.55-3.31,8.07-2.2,1.52-4.83,2.28-7.87,2.28h-12.1c-.84,0-1.55-.28-2.11-.85-.57-.57-.85-1.27-.85-2.11v-28.1c0-.84.28-1.55.85-2.11.57-.57,1.27-.85,2.11-.85h12.25c6.16,0,9.24,2.88,9.24,8.65,0,1.46-.35,2.75-1.05,3.86-.7,1.12-1.69,2-2.99,2.65,1.72.68,3.12,1.72,4.2,3.11ZM183.2,131.1c-.66-.66-1.6-1-2.8-1h-8.02v7.58h8.17c.97,0,1.82-.32,2.55-.97.73-.65,1.09-1.52,1.09-2.62,0-1.33-.33-2.32-1-2.99ZM184.71,151.58c.86-.81,1.29-1.99,1.29-3.55,0-1.91-.5-3.16-1.51-3.74-1.01-.58-2.24-.88-3.69-.88h-8.41v9.38h8.75c1.52,0,2.71-.41,3.57-1.22Z"/><path class="cls-1" d="M227.7,150.2c-1.43,2.67-3.39,4.79-5.91,6.34-2.51,1.56-5.34,2.33-8.48,2.33s-5.97-.78-8.48-2.33c-2.51-1.56-4.47-3.67-5.88-6.34-1.41-2.67-2.11-5.61-2.11-8.82s.71-6.15,2.11-8.82,3.37-4.79,5.88-6.34c2.51-1.56,5.34-2.33,8.48-2.33s5.97.78,8.48,2.33c2.51,1.56,4.48,3.67,5.91,6.34,1.43,2.67,2.14,5.61,2.14,8.82s-.71,6.15-2.14,8.82ZM222.21,135.47c-.88-1.77-2.09-3.17-3.65-4.2-1.55-1.04-3.3-1.56-5.25-1.56s-3.74.51-5.27,1.53c-1.54,1.02-2.74,2.42-3.6,4.2-.86,1.78-1.29,3.76-1.29,5.93s.43,4.15,1.29,5.93c.86,1.78,2.06,3.18,3.6,4.2,1.54,1.02,3.3,1.53,5.27,1.53s3.69-.52,5.25-1.56c1.56-1.04,2.77-2.44,3.65-4.2.88-1.77,1.31-3.73,1.31-5.91s-.44-4.14-1.31-5.91Z"/><path class="cls-1" d="M262.26,125.14c.52.55.78,1.26.78,2.14v17.6c0,2.69-.57,5.07-1.7,7.15-1.13,2.07-2.72,3.69-4.76,4.86-2.04,1.17-4.37,1.75-7,1.75s-4.97-.58-7.02-1.75c-2.06-1.17-3.65-2.79-4.79-4.86-1.13-2.07-1.7-4.46-1.7-7.15v-17.6c0-.84.29-1.55.88-2.11s1.33-.85,2.24-.85c.78,0,1.46.28,2.04.85s.88,1.27.88,2.11v17.6c0,1.56.34,2.94,1.02,4.16.68,1.21,1.6,2.15,2.75,2.79,1.15.65,2.39.97,3.72.97s2.7-.32,3.91-.97c1.22-.65,2.19-1.58,2.92-2.79.73-1.22,1.09-2.6,1.09-4.16v-17.6c0-.88.24-1.59.73-2.14.49-.55,1.15-.83,1.99-.83s1.52.28,2.04.83Z"/><path class="cls-1" d="M298.64,154.65c.24.42.36.86.36,1.31,0,.58-.19,1.12-.58,1.6-.49.58-1.23.88-2.24.88-.78,0-1.49-.18-2.14-.54-2.33-1.33-3.5-4.03-3.5-8.12,0-1.17-.38-2.09-1.14-2.77-.76-.68-1.86-1.02-3.28-1.02h-9.09v9.43c0,.88-.24,1.59-.7,2.14-.47.55-1.09.83-1.87.83-.94,0-1.76-.28-2.45-.85s-1.05-1.27-1.05-2.11v-28.1c0-.84.28-1.55.85-2.11s1.27-.85,2.11-.85h14c1.68,0,3.27.45,4.76,1.36,1.49.91,2.68,2.16,3.57,3.74.89,1.59,1.34,3.37,1.34,5.35,0,1.62-.44,3.2-1.31,4.74-.88,1.54-2.01,2.76-3.4,3.67,2.04,1.43,3.16,3.34,3.35,5.74.1.52.15,1.02.15,1.51.13,1.01.26,1.73.39,2.16.13.44.42.77.87,1,.42.26.75.6,1,1.02ZM289.38,140.16c.55-.55,1-1.29,1.36-2.21.36-.92.53-1.92.53-2.99,0-.91-.18-1.74-.53-2.5-.36-.76-.81-1.37-1.36-1.82-.55-.45-1.12-.68-1.7-.68h-10.65v11.03h10.65c.58,0,1.15-.27,1.7-.83Z"/><path class="cls-1" d="M331.67,140.87c.55.57.83,1.27.83,2.11v10.3c0,1.13-.5,2.01-1.51,2.63-3.18,1.98-6.66,2.97-10.45,2.97-3.21,0-6.17-.79-8.9-2.36-2.72-1.57-4.88-3.69-6.47-6.37-1.59-2.67-2.38-5.6-2.38-8.77s.79-6.1,2.38-8.77c1.59-2.67,3.74-4.8,6.47-6.37,2.72-1.57,5.69-2.36,8.9-2.36s5.99.65,8.36,1.94c.49.26.85.6,1.09,1.02.24.42.36.88.36,1.36,0,.81-.27,1.51-.8,2.11-.53.6-1.19.9-1.97.9-.49,0-1.02-.13-1.6-.39-1.75-.75-3.56-1.12-5.44-1.12-2.07,0-3.99.53-5.74,1.58-1.75,1.05-3.14,2.47-4.16,4.25-1.02,1.78-1.53,3.73-1.53,5.83s.51,4.05,1.53,5.83c1.02,1.78,2.41,3.2,4.16,4.25,1.75,1.05,3.66,1.58,5.74,1.58.91,0,1.88-.08,2.92-.24,1.04-.16,1.94-.37,2.72-.63v-6.32h-4.57c-.84,0-1.55-.28-2.11-.83-.57-.55-.85-1.25-.85-2.09s.28-1.54.85-2.09c.57-.55,1.27-.83,2.11-.83h7.97c.84,0,1.54.28,2.09.85Z"/></svg>